<svg width="18" height="19" viewBox="0 0 18 19" fill="none" xmlns="http://www.w3.org/2000/svg">
<path fill-rule="evenodd" clip-rule="evenodd" d="M12.3851 2.62025L7.51172 0.983643L16.8683 14.9952L17.01 9.5131L16.7513 9.12755C17.1227 7.82473 16.9151 6.42241 16.1773 5.28126C15.4097 4.09405 14.1498 3.31524 12.7463 3.15852L12.3851 2.62025Z" fill="white"/>
<path fill-rule="evenodd" clip-rule="evenodd" d="M8.06723 2.92285L15.2685 13.7067C14.077 16.4096 11.3741 18.2964 8.23058 18.2964C3.98483 18.2964 0.542969 14.8545 0.542969 10.6088C0.542969 6.4176 3.8969 3.00979 8.06723 2.92285ZM12.1277 10.609C12.1277 12.7612 10.383 14.5058 8.23085 14.5058C6.0787 14.5058 4.33403 12.7612 4.33403 10.609C4.33403 8.45688 6.0787 6.71221 8.23085 6.71221C10.383 6.71221 12.1277 8.45688 12.1277 10.609Z" fill="white"/>
<path fill-rule="evenodd" clip-rule="evenodd" d="M8.33646 13.7235C10.0562 13.7235 11.4503 12.3294 11.4503 10.6097C11.4503 8.88995 10.0562 7.49585 8.33646 7.49585C6.61676 7.49585 5.22266 8.88995 5.22266 10.6097C5.22266 12.3294 6.61676 13.7235 8.33646 13.7235ZM8.33688 12.2241C9.22854 12.2241 9.95136 11.5013 9.95136 10.6096C9.95136 9.71794 9.22854 8.99511 8.33688 8.99511C7.44523 8.99511 6.7224 9.71794 6.7224 10.6096C6.7224 11.5013 7.44523 12.2241 8.33688 12.2241Z" fill="white"/>
</svg>
