<svg width="22" height="22" viewBox="0 0 22 22" fill="none" xmlns="http://www.w3.org/2000/svg">
<path d="M0.327148 15.3915V6.11797C0.327148 2.90509 2.95587 0.276367 6.16876 0.276367H15.5153C18.7282 0.276367 21.3569 2.90509 21.3569 6.11797V15.4645C21.3569 18.6774 18.7282 21.3062 15.5153 21.3062H6.09574C2.80983 21.2331 0.327148 18.6774 0.327148 15.3915Z" fill="white"/>
<path d="M16.4638 10.2797L7.99343 5.24129C7.84739 5.16827 7.55531 5.16827 7.40927 5.24129C7.26323 5.31431 7.11719 5.53337 7.11719 5.75243V15.6832C7.11719 15.9022 7.26323 16.1213 7.40927 16.1943C7.48229 16.2673 7.62833 16.2673 7.70135 16.2673C7.77437 16.2673 7.92041 16.2673 7.99343 16.1943L16.4638 11.2289C16.6098 11.1559 16.7558 10.9369 16.7558 10.7178C16.7558 10.4987 16.6098 10.4257 16.4638 10.2797Z" fill="#27235C"/>
</svg>
