<svg width="22" height="23" viewBox="0 0 22 23" fill="none" xmlns="http://www.w3.org/2000/svg">
<path d="M7.22639 11.6933C7.22639 9.73888 8.7899 8.07764 10.842 8.07764C12.8941 8.07764 14.4577 9.64116 14.4577 11.6933C14.4577 13.7454 12.8941 15.3089 10.842 15.3089C8.7899 15.3089 7.22639 13.6477 7.22639 11.6933ZM5.27199 11.6933C5.27199 14.7226 7.71499 17.2633 10.842 17.2633C13.9691 17.2633 16.4121 14.8203 16.4121 11.6933C16.4121 8.56624 13.9691 6.12324 10.842 6.12324C7.71499 6.12324 5.27199 8.66396 5.27199 11.6933ZM15.2394 5.9278C15.2394 6.61184 15.8257 7.19816 16.5098 7.19816C17.1938 7.19816 17.7801 6.61184 17.7801 5.9278C17.7801 5.24377 17.1938 4.65745 16.5098 4.65745C15.8257 4.65745 15.2394 5.24377 15.2394 5.9278ZM6.44463 20.4881C5.36971 20.4881 4.78339 20.2926 4.49023 20.0972C4.00163 19.9017 3.61075 19.7063 3.21987 19.3154C2.82899 18.9245 2.63355 18.5337 2.43811 18.0451C2.24267 17.6542 2.14495 17.0679 2.04723 16.0907C1.94951 14.918 1.94951 14.6249 1.94951 11.791C1.94951 8.95712 1.94951 8.56624 2.04723 7.49132C2.04723 6.4164 2.24267 5.83009 2.43811 5.53693C2.63355 4.85289 2.82899 4.46201 3.21987 4.16885C3.61075 3.77797 4.00163 3.48481 4.49023 3.28937C4.88111 3.09393 5.46743 2.99621 6.44463 2.89849C7.61727 2.80077 7.91043 2.80077 10.7443 2.80077C13.5782 2.80077 13.9691 2.80077 15.044 2.89849C16.1189 2.89849 16.7052 3.09393 16.9984 3.28937C17.487 3.48481 17.8779 3.68025 18.2687 4.07113C18.7573 4.46201 19.0505 4.85289 19.2459 5.34149C19.4414 5.73236 19.5391 6.31868 19.6368 7.29588C19.7345 8.46852 19.7345 8.76168 19.7345 11.5956C19.7345 14.4294 19.7345 14.8203 19.6368 15.8952C19.6368 16.9702 19.4414 17.5565 19.2459 17.8496C19.0505 18.3382 18.8551 18.7291 18.4642 19.12C18.0733 19.5109 17.6824 19.7063 17.1938 19.9017C16.8029 20.0972 16.2166 20.1949 15.2394 20.2926C14.0668 20.3903 13.7736 20.3903 10.9397 20.3903C8.10587 20.3903 7.61727 20.4881 6.44463 20.4881ZM6.34691 1.04181C5.27199 1.04181 4.49023 1.23725 3.80619 1.53041C3.12215 1.82357 2.53583 2.21445 1.85179 2.80077C1.16776 3.38709 0.874596 3.97341 0.581436 4.75517C0.288277 5.43921 0.092837 6.22096 0.092837 7.3936C-0.00488291 8.56624 -0.00488281 8.8594 -0.00488281 11.791C-0.00488281 14.7226 -0.00488291 15.1135 0.092837 16.1884C0.190557 17.361 0.288277 18.1428 0.581436 18.8268C0.874596 19.5109 1.26548 20.0972 1.85179 20.7812C2.43811 21.3675 3.02443 21.7584 3.80619 22.0516C4.49023 22.3447 5.27199 22.5402 6.44463 22.5402C7.61727 22.6379 7.91043 22.6379 10.842 22.6379C13.7736 22.6379 14.1645 22.6379 15.2394 22.5402C16.4121 22.4425 17.1938 22.3447 17.8779 22.0516C18.5619 21.7584 19.1482 21.3675 19.8322 20.7812C20.4186 20.1949 20.8094 19.6086 21.1026 18.8268C21.3958 18.1428 21.5912 17.361 21.5912 16.1884C21.6889 15.0158 21.6889 14.7226 21.6889 11.791C21.6889 8.8594 21.6889 8.46852 21.5912 7.3936C21.4935 6.22096 21.3958 5.43921 21.1026 4.75517C20.8094 4.07113 20.4186 3.48481 19.8322 2.80077C19.2459 2.21445 18.6596 1.82357 17.9756 1.53041C17.2915 1.23725 16.5098 1.04181 15.3371 1.04181C14.1645 0.944092 13.8713 0.944092 10.9397 0.944092C8.00815 0.944092 7.51955 0.944092 6.34691 1.04181Z" fill="white"/>
</svg>
