<svg width="13" height="13" viewBox="0 0 13 13" fill="none" xmlns="http://www.w3.org/2000/svg">
<path fill-rule="evenodd" clip-rule="evenodd" d="M9.04358 1.44106L5.60742 0.287109L12.2046 10.1664L12.3045 6.3011L12.1222 6.02939C12.3841 5.11073 12.2378 4.12188 11.7175 3.3172C11.1763 2.48005 10.2878 1.9309 9.29815 1.82047L9.04358 1.44106Z" fill="#464596"/>
<path fill-rule="evenodd" clip-rule="evenodd" d="M5.99907 1.6543L11.0763 9.25744C10.2363 11.1634 8.3304 12.4939 6.11378 12.4939C3.12016 12.4939 0.693359 10.0671 0.693359 7.07353C0.693359 4.11824 3.05841 1.71535 5.99907 1.6543ZM8.86136 7.07363C8.86136 8.59108 7.63123 9.82121 6.11378 9.82121C4.59633 9.82121 3.36619 8.59108 3.36619 7.07363C3.36619 5.55618 4.59633 4.32604 6.11378 4.32604C7.63123 4.32604 8.86136 5.55618 8.86136 7.07363Z" fill="#464596"/>
<path fill-rule="evenodd" clip-rule="evenodd" d="M6.18964 9.2699C7.40218 9.2699 8.38514 8.28695 8.38514 7.0744C8.38514 5.86186 7.40218 4.87891 6.18964 4.87891C4.9771 4.87891 3.99414 5.86186 3.99414 7.0744C3.99414 8.28695 4.9771 9.2699 6.18964 9.2699ZM6.18964 8.21275C6.81833 8.21275 7.32799 7.70309 7.32799 7.0744C7.32799 6.44571 6.81833 5.93605 6.18964 5.93605C5.56095 5.93605 5.05129 6.44571 5.05129 7.0744C5.05129 7.70309 5.56095 8.21275 6.18964 8.21275Z" fill="#464596"/>
</svg>
