<svg width="24" height="20" viewBox="0 0 24 20" fill="none" xmlns="http://www.w3.org/2000/svg">
<path d="M2.40654 8.93792L12.0146 19.8379C14.0499 17.5138 18.7407 12.2397 21.2217 9.73585C23.7028 7.23198 23.4293 4.48825 22.9825 3.42937C22.7691 2.72328 21.834 1.13226 19.8011 0.416871C17.26 -0.477368 15.5088 1.50296 13.7171 3.26461C12.8658 4.10164 12.6565 4.22726 12.2506 4.72322C11.5819 4.07375 11.5269 4.04854 10.6329 3.2646C8.41475 0.852628 6.22867 0.189735 5.33496 0.205411C4.30794 0.20541 2.04982 0.850199 1.23347 3.42937C0.417121 6.00854 1.67537 8.17639 2.40654 8.93792Z" fill="#FF0E22"/>
</svg>
