<svg width="33" height="27" viewBox="0 0 33 27" fill="none" xmlns="http://www.w3.org/2000/svg">
<path d="M16.4688 26.8044C16.2545 26.8056 16.0422 26.7666 15.8439 26.6896C15.6455 26.6127 15.4652 26.4993 15.3131 26.356L2.66575 14.3255C1.07932 12.8027 0.189453 10.7467 0.189453 8.60414C0.189453 6.4616 1.07932 4.40559 2.66575 2.88273C4.26459 1.36812 6.43037 0.517578 8.68829 0.517578C10.9462 0.517578 13.112 1.36812 14.7108 2.88273L16.4688 4.55276L18.2267 2.88273C19.8255 1.36812 21.9913 0.517578 24.2492 0.517578C26.5071 0.517578 28.6729 1.36812 30.2717 2.88273C31.8582 4.40559 32.748 6.4616 32.748 8.60414C32.748 10.7467 31.8582 12.8027 30.2717 14.3255L17.6244 26.356C17.4723 26.4993 17.292 26.6127 17.0936 26.6896C16.8953 26.7666 16.683 26.8056 16.4688 26.8044ZM8.68829 3.6095C7.99924 3.60654 7.31642 3.73349 6.67938 3.98299C6.04234 4.2325 5.46374 4.59961 4.9771 5.06305C3.99406 6.00186 3.44223 7.2722 3.44223 8.59641C3.44223 9.92061 3.99406 11.191 4.9771 12.1298L16.4688 23.0623L27.9604 12.1298C28.9434 11.191 29.4953 9.92061 29.4953 8.59641C29.4953 7.2722 28.9434 6.00186 27.9604 5.06305C26.9572 4.16264 25.6293 3.66099 24.2492 3.66099C22.8691 3.66099 21.5412 4.16264 20.538 5.06305L17.6244 7.84644C17.4731 7.99137 17.2931 8.10641 17.0947 8.18491C16.8964 8.26342 16.6836 8.30384 16.4688 8.30384C16.2539 8.30384 16.0411 8.26342 15.8428 8.18491C15.6444 8.10641 15.4644 7.99137 15.3131 7.84644L12.3995 5.06305C11.9128 4.59961 11.3342 4.2325 10.6972 3.98299C10.0602 3.73349 9.37734 3.60654 8.68829 3.6095Z" fill="#FF0000"/>
</svg>
