<svg width="24" height="20" viewBox="0 0 24 20" fill="none" xmlns="http://www.w3.org/2000/svg">
<path d="M12.1222 19.18C11.9659 19.1808 11.811 19.1524 11.6663 19.0962C11.5216 19.0401 11.3899 18.9573 11.279 18.8528L2.05095 10.0749C0.893425 8.96373 0.244141 7.46358 0.244141 5.90029C0.244141 4.33701 0.893425 2.83685 2.05095 1.72571C3.21753 0.62059 4.79778 0 6.44525 0C8.09271 0 9.67296 0.62059 10.8395 1.72571L12.1222 2.94424L13.4049 1.72571C14.5714 0.62059 16.1517 0 17.7992 0C19.4466 0 21.0269 0.62059 22.1934 1.72571C23.351 2.83685 24.0003 4.33701 24.0003 5.90029C24.0003 7.46358 23.351 8.96373 22.1934 10.0749L12.9654 18.8528C12.8545 18.9573 12.7228 19.0401 12.5781 19.0962C12.4334 19.1524 12.2785 19.1808 12.1222 19.18ZM6.44525 2.256C5.94249 2.25384 5.44427 2.34646 4.97946 2.52851C4.51465 2.71056 4.09248 2.97842 3.73741 3.31657C3.02014 4.00156 2.6175 4.92846 2.6175 5.89465C2.6175 6.86084 3.02014 7.78774 3.73741 8.47274L12.1222 16.4496L20.507 8.47274C21.2243 7.78774 21.6269 6.86084 21.6269 5.89465C21.6269 4.92846 21.2243 4.00156 20.507 3.31657C19.775 2.65959 18.8062 2.29356 17.7992 2.29356C16.7922 2.29356 15.8233 2.65959 15.0913 3.31657L12.9654 5.34744C12.855 5.45319 12.7237 5.53713 12.5789 5.59441C12.4342 5.65169 12.279 5.68118 12.1222 5.68118C11.9654 5.68118 11.8102 5.65169 11.6655 5.59441C11.5207 5.53713 11.3894 5.45319 11.279 5.34744L9.15308 3.31657C8.79801 2.97842 8.37584 2.71056 7.91103 2.52851C7.44622 2.34646 6.94801 2.25384 6.44525 2.256Z" fill="#2B72B0"/>
</svg>
