<svg width="30" height="29" viewBox="0 0 30 29" fill="none" xmlns="http://www.w3.org/2000/svg">
<path d="M24.6468 18.4383C23.2199 18.4383 21.674 18.2005 20.3659 17.7248H20.0092C19.6525 17.7248 19.4146 17.8437 19.1768 18.0816L16.5607 20.6977C13.2312 18.914 10.3773 16.179 8.7125 12.8494L11.3286 10.2333C11.6853 9.87659 11.8042 9.40094 11.5664 9.0442C11.2097 7.73616 10.9718 6.1903 10.9718 4.76335C10.9718 4.16878 10.3773 3.57422 9.78271 3.57422H5.62077C5.0262 3.57422 4.43164 4.16878 4.43164 4.76335C4.43164 15.9411 13.469 24.9785 24.6468 24.9785C25.2414 24.9785 25.8359 24.3839 25.8359 23.7894V19.6274C25.8359 19.0329 25.2414 18.4383 24.6468 18.4383ZM6.8099 5.95247H8.59359C8.7125 7.02269 8.95033 8.0929 9.18815 9.0442L7.7612 10.4712C7.28555 9.04421 6.92881 7.49834 6.8099 5.95247ZM23.4577 22.6003C21.9118 22.4813 20.3659 22.1246 18.939 21.649L20.3659 20.222C21.3172 20.4598 22.3875 20.6977 23.4577 20.6977V22.6003ZM18.7012 14.2764H21.0794C21.0794 12.6995 20.453 11.1872 19.338 10.0722C18.223 8.95714 16.7107 8.33073 15.1338 8.33073V10.709C16.0799 10.709 16.9873 11.0848 17.6563 11.7538C18.3253 12.4229 18.7012 13.3302 18.7012 14.2764ZM23.4577 14.2764H25.8359C25.8359 8.33073 21.0438 3.57422 15.1338 3.57422V5.95247C19.7238 5.95247 23.4577 9.67444 23.4577 14.2764Z" fill="#2B72B0"/>
</svg>
