<svg width="19" height="19" viewBox="0 0 19 19" fill="none" xmlns="http://www.w3.org/2000/svg">
<path d="M18.3584 16.8134L14.9584 13.4234C16.0554 12.0259 16.6507 10.3001 16.6484 8.52344C16.6484 6.94119 16.1792 5.39447 15.3002 4.07888C14.4211 2.76329 13.1717 1.73791 11.7099 1.1324C10.2481 0.526904 8.63957 0.368477 7.08772 0.677159C5.53587 0.985841 4.11041 1.74777 2.99159 2.86659C1.87277 3.98541 1.11084 5.41087 0.802159 6.96272C0.493477 8.51457 0.651904 10.1231 1.2574 11.5849C1.86291 13.0467 2.88829 14.2961 4.20388 15.1752C5.51947 16.0542 7.06619 16.5234 8.64844 16.5234C10.4251 16.5257 12.1509 15.9304 13.5484 14.8334L16.9384 18.2334C17.0314 18.3272 17.142 18.4016 17.2639 18.4523C17.3857 18.5031 17.5164 18.5292 17.6484 18.5292C17.7805 18.5292 17.9112 18.5031 18.033 18.4523C18.1549 18.4016 18.2655 18.3272 18.3584 18.2334C18.4522 18.1405 18.5266 18.0299 18.5773 17.908C18.6281 17.7862 18.6542 17.6555 18.6542 17.5234C18.6542 17.3914 18.6281 17.2607 18.5773 17.1389C18.5266 17.017 18.4522 16.9064 18.3584 16.8134ZM2.64844 8.52344C2.64844 7.33675 3.00033 6.17671 3.65962 5.19002C4.31891 4.20333 5.25598 3.43429 6.35234 2.98016C7.4487 2.52604 8.6551 2.40722 9.81898 2.63873C10.9829 2.87024 12.052 3.44169 12.8911 4.2808C13.7302 5.11992 14.3016 6.18901 14.5332 7.3529C14.7647 8.51679 14.6458 9.72319 14.1917 10.8195C13.7376 11.9159 12.9686 12.853 11.9819 13.5123C10.9952 14.1715 9.83513 14.5234 8.64844 14.5234C7.05714 14.5234 5.53102 13.8913 4.4058 12.7661C3.28058 11.6409 2.64844 10.1147 2.64844 8.52344Z" fill="#277CB5"/>
</svg>
