<svg width="23" height="25" viewBox="0 0 23 25" fill="none" xmlns="http://www.w3.org/2000/svg">
<path fill-rule="evenodd" clip-rule="evenodd" d="M16.5507 2.95296L9.81055 0.689453L22.7512 20.0681L22.9471 12.4861L22.5896 11.9532C23.1033 10.1513 22.8162 8.21169 21.7958 6.63333C20.7342 4.99127 18.9915 3.91411 17.0502 3.69745L16.5507 2.95296Z" fill="white"/>
<path fill-rule="evenodd" clip-rule="evenodd" d="M10.5763 3.37109L20.5348 18.284C18.8873 22.0231 15.1487 24.6335 10.8003 24.6335C4.92823 24.6335 0.167969 19.8732 0.167969 14.0011C0.167969 8.20388 4.80766 3.4903 10.5763 3.37109ZM16.1903 14.0011C16.1903 16.9777 13.7774 19.3906 10.8008 19.3906C7.8243 19.3906 5.41135 16.9777 5.41135 14.0011C5.41135 11.0246 7.8243 8.61166 10.8008 8.61166C13.7774 8.61166 16.1903 11.0246 16.1903 14.0011Z" fill="white"/>
<path fill-rule="evenodd" clip-rule="evenodd" d="M10.9472 18.3094C13.3256 18.3094 15.2537 16.3813 15.2537 14.0028C15.2537 11.6244 13.3256 9.69629 10.9472 9.69629C8.56873 9.69629 6.64062 11.6244 6.64062 14.0028C6.64062 16.3813 8.56873 18.3094 10.9472 18.3094ZM10.9468 16.2358C12.18 16.2358 13.1797 15.2361 13.1797 14.0029C13.1797 12.7697 12.18 11.77 10.9468 11.77C9.71357 11.77 8.71386 12.7697 8.71386 14.0029C8.71386 15.2361 9.71357 16.2358 10.9468 16.2358Z" fill="white"/>
</svg>
