<svg width="22" height="25" viewBox="0 0 22 25" fill="none" xmlns="http://www.w3.org/2000/svg">
<path d="M11.0906 0.5C6.8847 0.5 3.45433 3.93036 3.45433 8.13629C3.45433 10.7655 4.79665 13.1007 6.8293 14.4771C3.2572 16.0108 0.640631 19.3909 0.236177 23.4103C0.175856 24.0097 0.670052 24.4998 1.27254 24.4998V24.4998C1.87503 24.4998 2.35624 24.0093 2.43047 23.4114C2.76449 20.721 4.32117 18.4227 6.52249 17.068C7.25543 18.8663 9.04093 20.1362 11.0906 20.1362C13.1403 20.1362 14.9258 18.8663 15.6588 17.068C17.8601 18.4227 19.4168 20.721 19.7508 23.4114C19.825 24.0093 20.3062 24.4998 20.9087 24.4998V24.4998C21.5112 24.4998 22.0054 24.0097 21.9451 23.4103C21.5406 19.3909 18.924 16.0108 15.3519 14.4771C17.3846 13.1007 18.7269 10.7655 18.7269 8.13629C18.7269 3.93036 15.2965 0.5 11.0906 0.5ZM11.0906 2.6818C14.1162 2.6818 16.5451 5.11075 16.5451 8.13629C16.5451 11.1618 14.1162 13.5908 11.0906 13.5908C8.06508 13.5908 5.63613 11.1618 5.63613 8.13629C5.63613 5.11075 8.06508 2.6818 11.0906 2.6818ZM11.0906 15.7726C11.9855 15.7726 12.8378 15.9004 13.6474 16.1476C13.2682 17.2001 12.2795 17.9544 11.0906 17.9544C9.90171 17.9544 8.91309 17.2001 8.53383 16.1476C9.34348 15.9004 10.1957 15.7726 11.0906 15.7726Z" fill="#2B72B0"/>
</svg>
