<svg xmlns="http://www.w3.org/2000/svg" xmlns:xlink="http://www.w3.org/1999/xlink"><symbol id="sprite-arrow-next" viewBox="0 0 18 32"><path d="m1.38 27.576 10.365-9.756.003-.003a2.48 2.48 0 0 0 .783-1.813v-.008a2.48 2.48 0 0 0-.784-1.814l-.002-.003L1.38 4.423A2.5 2.5 0 1 1 4.807.783l10.362 9.753A7.48 7.48 0 0 1 17.53 16a7.48 7.48 0 0 1-2.36 5.462L4.806 31.217a2.5 2.5 0 0 1-3.427-3.64"/></symbol><use xlink:href="#sprite-arrow-next" width="18" height="32" y="0"/><view id="sprite-arrow-next-view" viewBox="0 0 18 32"/><symbol id="sprite-cart" viewBox="0 0 34 34"><g><path d="M4.36 5.122h2.824v19.772c0 .732.627 1.464 1.464 1.464h16.947c.628 0 1.15-.418 1.36-1.046l4.289-14.122c.209-.732-.21-1.57-.942-1.779-.104 0-.314-.104-.418-.104H10.008v-5.65c0-.731-.628-1.464-1.465-1.464H4.36c-.732 0-1.464.628-1.464 1.465s.732 1.464 1.464 1.464m5.648 7.01h17.888L24.55 23.428H10.008zM9.38 27.717c1.151 0 2.092.942 2.092 2.092s-.941 2.093-2.092 2.093a2.1 2.1 0 0 1-2.092-2.093c0-1.15.837-2.092 2.092-2.092m14.123 0c1.15 0 2.092.942 2.092 2.092s-.942 2.093-2.092 2.093a2.1 2.1 0 0 1-2.093-2.093 2.1 2.1 0 0 1 2.093-2.092"/></g></symbol><use xlink:href="#sprite-cart" width="34" height="34" y="32"/><view id="sprite-cart-view" viewBox="0 32 34 34"/><symbol id="sprite-like" viewBox="0 0 29 24"><path d="M14.454 23.639a1.5 1.5 0 0 1-.546-.1 1.4 1.4 0 0 1-.464-.292L2.392 12.734C1.006 11.404.23 9.607.23 7.734c0-1.872.777-3.668 2.163-5C3.79 1.412 5.682.669 7.655.669s3.866.743 5.263 2.067l1.536 1.46 1.536-1.46C17.388 1.41 19.28.668 21.253.668s3.866.743 5.263 2.067c1.386 1.33 2.164 3.127 2.164 5 0 1.872-.778 3.668-2.164 5L15.464 23.246q-.201.189-.464.292a1.5 1.5 0 0 1-.546.1M7.655 3.369a4.8 4.8 0 0 0-1.755.327 4.6 4.6 0 0 0-1.488.944 4.27 4.27 0 0 0-1.341 3.088 4.27 4.27 0 0 0 1.341 3.087l10.042 9.554 10.042-9.554a4.27 4.27 0 0 0 1.342-3.087 4.27 4.27 0 0 0-1.342-3.088 4.86 4.86 0 0 0-3.243-1.225A4.86 4.86 0 0 0 18.01 4.64l-2.546 2.432a1.4 1.4 0 0 1-.463.296 1.5 1.5 0 0 1-1.094 0 1.4 1.4 0 0 1-.463-.296L10.898 4.64a4.6 4.6 0 0 0-1.487-.944 4.8 4.8 0 0 0-1.756-.326"/></symbol><use xlink:href="#sprite-like" width="29" height="24" y="66"/><view id="sprite-like-view" viewBox="0 66 29 24"/><symbol id="sprite-search" viewBox="0 0 19 19"><path d="m17.853 16.967-3.4-3.39a7.92 7.92 0 0 0 1.69-4.9 8 8 0 1 0-8 8 7.92 7.92 0 0 0 4.9-1.69l3.39 3.4a1 1 0 0 0 1.42 0 1 1 0 0 0 0-1.42m-15.71-8.29a6 6 0 1 1 12 0 6 6 0 0 1-12 0"/></symbol><use xlink:href="#sprite-search" width="19" height="19" y="90"/><view id="sprite-search-view" viewBox="0 90 19 19"/></svg>