<svg width="19" height="19" viewBox="0 0 19 19" fill="none" xmlns="http://www.w3.org/2000/svg">
<path fill-rule="evenodd" clip-rule="evenodd" d="M13.0378 1.79578L7.69043 0L17.957 15.3743L18.1125 9.35902L17.8288 8.93627C18.2364 7.50667 18.0086 5.96786 17.1991 4.71565C16.3568 3.4129 14.9742 2.55832 13.4341 2.38643L13.0378 1.79578Z" fill="#39B54A"/>
<path fill-rule="evenodd" clip-rule="evenodd" d="M8.29981 2.12817L16.2004 13.9593C14.8934 16.9259 11.9272 18.9969 8.47729 18.9969C3.81861 18.9969 0.0419922 15.2203 0.0419922 10.5616C0.0419922 5.96226 3.72306 2.22264 8.29981 2.12817ZM12.7535 10.5621C12.7535 12.9235 10.8392 14.8379 8.47771 14.8379C6.11624 14.8379 4.20189 12.9235 4.20189 10.5621C4.20189 8.20059 6.11624 6.28624 8.47771 6.28624C10.8392 6.28624 12.7535 8.20059 12.7535 10.5621Z" fill="#39B54A"/>
<path fill-rule="evenodd" clip-rule="evenodd" d="M8.59341 13.9786C10.4804 13.9786 12.0101 12.4489 12.0101 10.5619C12.0101 8.67495 10.4804 7.14526 8.59341 7.14526C6.70645 7.14526 5.17676 8.67495 5.17676 10.5619C5.17676 12.4489 6.70645 13.9786 8.59341 13.9786ZM8.59309 12.3331C9.57147 12.3331 10.3646 11.54 10.3646 10.5616C10.3646 9.58322 9.57147 8.79009 8.59309 8.79009C7.61472 8.79009 6.82159 9.58322 6.82159 10.5616C6.82159 11.54 7.61472 12.3331 8.59309 12.3331Z" fill="#39B54A"/>
</svg>
