<svg width="19" height="19" viewBox="0 0 19 19" fill="none" xmlns="http://www.w3.org/2000/svg">
<path fill-rule="evenodd" clip-rule="evenodd" d="M12.9958 1.79578L7.64844 0L17.915 15.3743L18.0705 9.35902L17.7868 8.93627C18.1944 7.50667 17.9666 5.96786 17.1571 4.71565C16.3148 3.4129 14.9322 2.55832 13.3921 2.38643L12.9958 1.79578Z" fill="#B62F31"/>
<path fill-rule="evenodd" clip-rule="evenodd" d="M8.25782 2L16.1584 13.8311C14.8514 16.7977 11.8852 18.8688 8.4353 18.8688C3.77661 18.8688 0 15.0922 0 10.4335C0 5.83409 3.68107 2.09447 8.25782 2ZM12.7115 10.4339C12.7115 12.7954 10.7972 14.7097 8.43571 14.7097C6.07425 14.7097 4.1599 12.7954 4.1599 10.4339C4.1599 8.07242 6.07425 6.15807 8.43571 6.15807C10.7972 6.15807 12.7115 8.07242 12.7115 10.4339Z" fill="#B62F31"/>
<circle cx="8" cy="11" r="5" fill="#B62F31"/>
<circle cx="7.99871" cy="10.9994" r="2.59246" fill="#B62F31"/>
<rect x="5" y="8.4187" width="1.74827" height="7.25079" transform="rotate(-46.235 5 8.4187)" fill="white"/>
<rect x="6.47656" y="13.5896" width="1.74827" height="7.25079" transform="rotate(-138.51 6.47656 13.5896)" fill="white"/>
</svg>
