<svg width="36" height="31" viewBox="0 0 36 31" fill="none" xmlns="http://www.w3.org/2000/svg">
<path fill-rule="evenodd" clip-rule="evenodd" d="M20.3545 10.0826C28.4068 6.05647 31.049 5.04994 31.3635 5.04994C32.0974 4.73539 33.4709 3.88613 33.0935 3.00541C32.7467 2.1963 31.179 2.21011 30.3167 2.2177C30.2404 2.21837 30.1696 2.219 30.1056 2.219C30.0498 2.219 29.9187 2.21979 29.7216 2.22098C27.1424 2.23657 13.2681 2.32044 9.03099 1.58991C5.3823 0.960827 3.21196 0.279319 2.58288 0.0172005C1.7441 -0.087627 0.318173 0.23744 1.32471 2.37633C2.33124 4.51522 4.68002 8.40506 5.7286 10.0826C4.6277 13.4901 2.36299 20.777 2.11136 22.6642C1.79682 25.0233 1.95409 25.3379 2.58317 25.9669C3.08644 26.4702 3.80049 25.7572 4.09461 25.3379C6.28032 21.8003 12.422 14.0489 20.3545 10.0826ZM34.4069 9.71889C35.1615 9.51465 35.6076 8.73737 35.4034 7.9828C35.1992 7.22823 34.4219 6.7821 33.6673 6.98634C16.4867 11.6367 7.16952 23.4619 4.60195 28.9878C4.27255 29.6967 4.58022 30.5385 5.28915 30.8679C5.99809 31.1973 6.83983 30.8896 7.16923 30.1807C9.42465 25.3266 18.1202 14.1273 34.4069 9.71889Z" fill="white"/>
</svg>
