<svg width="21" height="20" viewBox="0 0 21 20" fill="none" xmlns="http://www.w3.org/2000/svg">
<path d="M7.41325 7.37779C7.99325 8.58581 8.78391 9.71801 9.78522 10.7193C10.7865 11.7206 11.9187 12.5113 13.1268 13.0913C13.2307 13.1412 13.2826 13.1661 13.3484 13.1853C13.582 13.2534 13.8689 13.2045 14.0667 13.0628C14.1224 13.0229 14.17 12.9753 14.2653 12.88C14.5566 12.5887 14.7023 12.443 14.8488 12.3478C15.4012 11.9886 16.1133 11.9886 16.6658 12.3478C16.8122 12.443 16.9579 12.5887 17.2492 12.88L17.4116 13.0424C17.8545 13.4853 18.0759 13.7067 18.1962 13.9446C18.4354 14.4175 18.4354 14.9761 18.1962 15.449C18.0759 15.6869 17.8545 15.9083 17.4116 16.3512L17.2803 16.4825C16.8389 16.9239 16.6182 17.1446 16.3182 17.3131C15.9853 17.5001 15.4682 17.6346 15.0864 17.6334C14.7422 17.6324 14.5071 17.5657 14.0367 17.4322C11.5089 16.7147 9.12355 15.361 7.13357 13.371C5.14359 11.381 3.78986 8.99569 3.07238 6.46786C2.93888 5.99749 2.87212 5.7623 2.8711 5.41818C2.86996 5.03633 3.00443 4.51925 3.19145 4.18633C3.35999 3.88631 3.58067 3.66563 4.02202 3.22428L4.15338 3.09292C4.59625 2.65005 4.81768 2.42861 5.0555 2.30833C5.52847 2.0691 6.08702 2.0691 6.55999 2.30832C6.79781 2.42861 7.01924 2.65005 7.46211 3.09291L7.6245 3.25531C7.91584 3.54665 8.06151 3.69231 8.15675 3.8388C8.51591 4.3912 8.51591 5.10335 8.15675 5.65576C8.06151 5.80225 7.91584 5.94791 7.6245 6.23925C7.52924 6.33451 7.48161 6.38214 7.44174 6.43782C7.30007 6.63568 7.25115 6.92256 7.31925 7.15619C7.33842 7.22193 7.36336 7.27389 7.41325 7.37779Z" stroke="#101828" stroke-width="1.66667" stroke-linecap="round" stroke-linejoin="round"/>
</svg>
