<svg width="21" height="20" viewBox="0 0 21 20" fill="none" xmlns="http://www.w3.org/2000/svg">
<path d="M17.097 17.5C17.097 16.337 17.097 15.7555 16.9535 15.2824C16.6303 14.217 15.7966 13.3834 14.7313 13.0602C14.2581 12.9167 13.6766 12.9167 12.5137 12.9167H8.34701C7.18404 12.9167 6.60255 12.9167 6.12939 13.0602C5.06405 13.3834 4.23037 14.217 3.9072 15.2824C3.76367 15.7555 3.76367 16.337 3.76367 17.5M14.1803 6.25C14.1803 8.32107 12.5014 10 10.4303 10C8.35927 10 6.68034 8.32107 6.68034 6.25C6.68034 4.17893 8.35927 2.5 10.4303 2.5C12.5014 2.5 14.1803 4.17893 14.1803 6.25Z" stroke="#101828" stroke-width="1.66667" stroke-linecap="round" stroke-linejoin="round"/>
</svg>
