<svg width="25" height="32" viewBox="0 0 25 32" fill="none" xmlns="http://www.w3.org/2000/svg">
<path d="M12.3696 0.292969C11.4873 0.297139 10.6055 0.336435 9.72636 0.410764C7.87329 0.564122 6.03486 0.860574 4.22751 1.29747C2.91756 1.62854 1.63106 2.04627 0.376496 2.54791L0.298828 2.57639C0.298828 2.57639 0.451574 11.9521 0.570664 16.5967C0.601345 17.9641 0.849985 19.3178 1.30721 20.6069C1.83634 22.0735 2.54136 23.4704 3.40682 24.7673C4.31227 26.1065 5.40762 27.3069 6.6585 28.3309C7.14747 28.7411 7.66292 29.1186 8.20149 29.461C9.04618 29.9713 9.92803 30.4174 10.8396 30.7956C11.1412 30.9224 11.404 31.0441 11.6422 31.1257C11.8912 31.2208 12.1463 31.2991 12.4059 31.36C12.6655 31.2987 12.9206 31.22 13.1696 31.1244C13.4052 31.0428 13.6706 30.9224 13.9722 30.7943C14.8833 30.4161 15.7647 29.9699 16.609 29.4597C17.1484 29.1173 17.6647 28.7398 18.1546 28.3296C19.4049 27.306 20.4999 26.106 21.405 24.7673C22.2705 23.4705 22.9756 22.0735 23.5046 20.6069C23.9622 19.3179 24.2113 17.9641 24.2424 16.5967C24.3602 11.9521 24.5142 2.58157 24.5142 2.58157C24.4902 2.56914 24.4656 2.55791 24.4405 2.54791C23.1855 2.04621 21.8985 1.62848 20.5882 1.29747C18.7808 0.861 16.9423 0.564981 15.0893 0.412059C14.2101 0.337819 13.3283 0.298092 12.446 0.292969L12.3696 0.292969ZM12.3696 0.760268H12.4434C13.3224 0.770624 14.1107 0.799102 14.9844 0.876769C16.7663 1.02508 18.5338 1.31202 20.271 1.73499C21.5312 2.05627 22.7684 2.46148 23.9745 2.9479C23.9996 2.95744 24.0242 2.96825 24.0482 2.98026L23.9991 5.92386C23.9913 5.91877 23.9831 5.91444 23.9745 5.91092C22.7688 5.42462 21.532 5.01942 20.2723 4.69801C18.5346 4.27553 16.7666 3.98902 14.9844 3.84108C14.1107 3.76341 13.3262 3.71163 12.4473 3.70128H12.3722C11.4933 3.71293 10.7024 3.76341 9.82862 3.84108C8.04676 3.99035 6.27923 4.27816 4.54206 4.70189C3.2819 5.02366 2.04467 5.4293 0.838617 5.91609C0.82959 5.91956 0.82092 5.9239 0.812728 5.92904L0.763538 2.97638L0.838617 2.9479C2.04425 2.46153 3.28106 2.05632 4.54077 1.73499C6.27879 1.31143 8.04721 1.02405 9.82992 0.875475C10.7037 0.797807 11.4907 0.771918 12.3696 0.760268ZM12.7424 1.03987C12.3532 1.03277 11.9639 1.03622 11.5748 1.05023C11.4182 1.0567 11.202 1.19132 11.1995 1.34795L11.1904 2.18676C11.1878 2.35763 11.413 2.49225 11.5852 2.49614C12.1832 2.50908 12.7114 2.49872 13.2913 2.53497C13.334 2.53885 13.3716 2.56474 13.3716 2.60746L13.3677 2.77574C13.3685 2.78364 13.3675 2.79162 13.3649 2.79911C13.3622 2.8066 13.358 2.81342 13.3524 2.81909C13.3469 2.82477 13.3402 2.82916 13.3327 2.83196C13.3253 2.83475 13.3173 2.83589 13.3094 2.83528C12.635 2.83528 11.9295 2.80292 11.2473 2.85729C11.2111 2.85988 11.2124 2.85082 11.2111 2.88706L11.18 3.38413L11.1774 3.42297C11.9888 3.3761 12.8022 3.3761 13.6136 3.42297C13.7083 3.42009 13.7991 3.38486 13.8709 3.32315C13.9428 3.26143 13.9913 3.17697 14.0084 3.08382L14.0162 2.27219C14.0162 2.10521 13.8117 1.98224 13.6783 1.97447C13.1062 1.93822 12.4551 1.95764 11.8739 1.94211C11.8658 1.94179 11.8579 1.93984 11.8506 1.93637C11.8434 1.93291 11.8369 1.928 11.8315 1.92195C11.8262 1.91589 11.8222 1.90882 11.8196 1.90117C11.8171 1.89351 11.8162 1.88542 11.8169 1.87738L11.8286 1.68969C11.8286 1.65344 11.8532 1.64309 11.8894 1.64179C12.4641 1.62108 13.3224 1.64827 13.9113 1.66639C13.9328 1.66276 13.9524 1.6517 13.9666 1.63514C13.9808 1.61859 13.9887 1.59758 13.989 1.57578V1.16543C13.989 1.14343 13.9476 1.0787 13.9075 1.07741C13.5193 1.06005 13.1309 1.04667 12.7424 1.03987ZM10.3089 1.12272C9.76131 1.13307 8.573 1.28452 7.89859 1.36866L7.89471 3.71034V3.74011L8.5031 3.66244C8.50569 3.66215 8.50819 3.66131 8.51042 3.65997C8.51265 3.65863 8.51457 3.65682 8.51604 3.65468C8.51896 3.65102 8.52035 3.64638 8.51993 3.64173V2.96473L9.74578 2.83269C9.85322 2.81328 9.97878 2.89224 10.0772 3.05146C10.1559 3.18609 10.2061 3.33545 10.2247 3.49028L10.8292 3.44497C10.8422 3.44497 10.8681 3.44497 10.8655 3.43203C10.8475 3.10568 10.7053 2.79859 10.4681 2.5738C10.5471 2.54183 10.6142 2.48596 10.6599 2.41402C10.7056 2.34207 10.7277 2.25764 10.7231 2.17252C10.7295 1.9288 10.7199 1.68493 10.6946 1.44245C10.6739 1.35393 10.6247 1.27467 10.5545 1.21689C10.4844 1.15911 10.3971 1.12601 10.3063 1.12272H10.3089ZM14.956 1.14731C14.83 1.1425 14.7066 1.18334 14.6084 1.2623C14.5101 1.34126 14.4437 1.45304 14.4214 1.57707L14.4084 3.12395C14.4125 3.21159 14.4451 3.2955 14.5011 3.36299C14.5572 3.43049 14.6337 3.4779 14.7191 3.49805C15.5087 3.57183 16.2854 3.64303 17.1656 3.77635C17.1798 3.77635 17.207 3.76729 17.207 3.75435V3.21585C17.207 3.2042 17.1811 3.17961 17.1721 3.17702C16.5844 3.10324 15.809 2.99968 15.1152 2.92719C15.0946 2.9222 15.0761 2.91068 15.0626 2.89435C15.0491 2.87802 15.0412 2.85776 15.0401 2.83658V1.78548C15.0401 1.74147 15.1048 1.71817 15.1488 1.72076C15.8336 1.77771 16.5158 1.90198 17.1993 1.97576C17.2174 1.97835 17.2459 1.9667 17.2472 1.94858L17.2601 1.4541C17.2592 1.4439 17.2551 1.43425 17.2484 1.42656C17.2416 1.41888 17.2326 1.41356 17.2226 1.41138C16.4697 1.30508 15.7131 1.21703 14.956 1.14731ZM17.519 1.4541C17.5035 1.4541 17.4905 1.47222 17.4905 1.48646C17.4828 1.84114 17.4323 3.37248 17.4219 3.78024V3.81519C17.6226 3.85014 17.8439 3.87732 18.0083 3.91098C18.0264 3.91357 18.0536 3.90062 18.0536 3.8825C18.051 3.61455 18.0536 3.30258 18.0484 3.05922C18.0484 3.0424 18.0562 3.0411 18.0743 3.04369C18.5515 3.1301 19.0271 3.22504 19.5008 3.32847C19.5112 3.32847 19.5681 3.33753 19.5681 3.36731C19.5642 3.6482 19.5591 3.88509 19.5513 4.16599C19.5509 4.1772 19.5541 4.18826 19.5603 4.19756C19.5666 4.20687 19.5757 4.21394 19.5862 4.21776C19.7739 4.26048 19.9526 4.30449 20.1299 4.34721C20.1778 4.35757 20.1856 4.3485 20.1869 4.33168C20.2154 3.74788 20.2257 2.81198 20.2335 2.02236C20.2335 2.01201 20.2296 1.99648 20.2205 1.99389C20.0225 1.94858 19.8361 1.90069 19.6341 1.85797C19.616 1.85408 19.6057 1.88386 19.6044 1.90327C19.585 2.19194 19.5927 2.45989 19.5707 2.74726C19.5707 2.75762 19.5707 2.76279 19.5591 2.76021C19.0801 2.66183 18.5688 2.55568 18.0937 2.46636C18.0808 2.46377 18.086 2.44047 18.0873 2.42623L18.0911 1.58095C18.0905 1.57171 18.0869 1.56292 18.0808 1.55591C18.0747 1.54891 18.0666 1.54406 18.0575 1.54212C17.8778 1.51114 17.6992 1.4818 17.519 1.4541ZM7.14263 1.48387C7.12668 1.48289 7.11068 1.48289 7.09473 1.48387C6.39184 1.59519 5.68507 1.74406 4.97182 1.8981C4.85744 1.93123 4.75442 1.99529 4.67409 2.0832C4.59906 2.15249 4.55207 2.24692 4.54206 2.34857L4.54724 3.79577C4.55271 3.92276 4.60108 4.04415 4.68445 4.1401C4.71286 4.1842 4.75198 4.22038 4.79816 4.24528C4.84433 4.27018 4.89606 4.28298 4.94852 4.28249C5.65004 4.12791 6.35482 3.9885 7.06237 3.86438C7.19826 3.83229 7.32003 3.75687 7.40928 3.6495C7.48559 3.56847 7.53055 3.46293 7.53614 3.35177L7.53355 1.84632C7.52898 1.79604 7.51395 1.74726 7.48943 1.70313C7.46491 1.65899 7.43144 1.62046 7.39116 1.59002C7.32347 1.52753 7.23594 1.49087 7.14392 1.48646L7.14263 1.48387ZM9.93477 1.73888C9.96024 1.73743 9.98528 1.74594 10.0046 1.7626C10.0239 1.77927 10.036 1.80279 10.0383 1.8282L10.0422 2.07285C10.0413 2.12404 10.0228 2.17336 9.9898 2.2125C9.95679 2.25164 9.9113 2.27821 9.86099 2.28773L8.48627 2.42235L8.47462 2.412V1.88515L8.48627 1.87997L9.92442 1.74017C9.92787 1.73999 9.93132 1.73999 9.93477 1.74017V1.73888ZM6.67274 2.11427C6.70822 2.11533 6.7429 2.12511 6.77371 2.14275C6.79656 2.15728 6.8151 2.17767 6.8274 2.20181C6.83969 2.22594 6.84529 2.25293 6.84361 2.27996L6.83196 3.19126C6.83314 3.21735 6.82799 3.24334 6.81694 3.26701C6.8059 3.29068 6.78929 3.31132 6.76853 3.32718C6.72195 3.35881 6.66887 3.3796 6.61319 3.38802C6.18369 3.47357 5.75348 3.55555 5.32262 3.63396C5.30318 3.63884 5.2829 3.63939 5.26322 3.63559C5.24354 3.63179 5.22493 3.62372 5.20871 3.61196C5.19384 3.59412 5.18273 3.57345 5.17606 3.55121C5.16938 3.52896 5.16728 3.50559 5.16987 3.48251V2.54274C5.1706 2.49583 5.18911 2.45096 5.22165 2.41717C5.26511 2.37722 5.31894 2.35031 5.37699 2.33951C5.75238 2.26961 6.24427 2.17252 6.63002 2.11686C6.64414 2.11459 6.65845 2.11372 6.67274 2.11427ZM20.6658 2.11427L20.6645 2.11557C20.6542 2.11557 20.6542 2.1311 20.6542 2.14016C20.6361 2.9246 20.6153 3.65079 20.6089 4.43523C20.6089 4.45206 20.6166 4.47407 20.6322 4.47795C21.5781 4.73228 22.5105 5.03471 23.4256 5.38407C23.467 5.39831 23.4657 5.36724 23.4657 5.35559C23.4696 5.17696 23.4787 4.99573 23.4696 4.8171C23.4685 4.80775 23.4649 4.79886 23.4592 4.79136C23.4535 4.78385 23.446 4.77799 23.4373 4.77438C22.7338 4.50342 22.0165 4.26966 21.2885 4.07408C21.2814 4.07168 21.2752 4.06716 21.2708 4.06114C21.2664 4.05512 21.264 4.04788 21.2639 4.04042L21.2742 3.80742C21.2742 3.79707 21.2923 3.79448 21.3027 3.79707C22.0324 4.00187 22.7536 4.23593 23.4644 4.49866C23.4774 4.50255 23.4774 4.48572 23.4774 4.47407C23.4866 4.27224 23.4866 4.07009 23.4774 3.86826C23.477 3.86069 23.4743 3.85343 23.4697 3.84742C23.465 3.84141 23.4587 3.83695 23.4515 3.8346C22.7541 3.5807 22.0467 3.35485 21.3312 3.1576C21.3208 3.15501 21.3079 3.14466 21.3079 3.1343V2.88577C21.3079 2.87541 21.3247 2.86894 21.3351 2.87282C22.0651 3.05922 22.8677 3.33883 23.4256 3.54465C23.4748 3.56277 23.5033 3.555 23.5033 3.5097C23.5033 3.30647 23.511 3.29223 23.5007 3.09029C23.4981 3.0644 23.4955 3.03851 23.4722 3.02945C22.5533 2.67465 21.616 2.36915 20.6645 2.11427H20.6658ZM3.87671 2.19712C3.84014 2.19678 3.80365 2.20069 3.76797 2.20877C2.92658 2.42365 2.0813 2.74467 1.23602 3.05275C1.22445 3.05986 1.21485 3.06973 1.20807 3.08149C1.20128 3.09324 1.19754 3.1065 1.19718 3.12006V5.01774L1.20107 5.44491C1.20107 5.44491 1.81075 5.21579 1.94279 5.17307C1.95962 5.1679 1.95962 5.15107 1.95962 5.13295L1.94667 4.45983C1.94667 4.44041 1.94926 4.41193 1.96738 4.40805L4.07088 3.75823C4.14164 3.73251 4.2036 3.68716 4.24951 3.62749C4.29533 3.57037 4.31921 3.49874 4.31682 3.42556L4.29482 2.54144C4.28934 2.49026 4.27271 2.4409 4.2461 2.39684C4.21949 2.35278 4.18353 2.3151 4.14078 2.28643C4.06359 2.23124 3.97157 2.20057 3.87671 2.19841V2.19712ZM3.50649 2.83917C3.55309 2.82622 3.59711 2.8793 3.5997 2.92072C3.61213 3.02812 3.61732 3.13623 3.61523 3.24433C3.61393 3.30258 3.52979 3.36989 3.47284 3.38672L1.9402 3.88638C1.92596 3.89156 1.90007 3.88638 1.90007 3.87085L1.90266 3.40743C1.90266 3.38543 1.92855 3.36731 1.94926 3.36083C2.45766 3.15657 2.97764 2.98238 3.50649 2.83917ZM12.525 4.10903C13.3703 4.12197 14.1379 4.14786 14.9844 4.22294C16.7658 4.37135 18.5329 4.65829 20.2697 5.08117C21.5299 5.40234 22.7671 5.80755 23.9732 6.29407C23.9794 6.29665 23.9855 6.29968 23.9913 6.30314C23.9878 6.49643 23.9848 6.68974 23.9822 6.88305H12.525V4.10903ZM12.1146 4.11162L12.1133 10.0894H8.29858C8.24291 10.0842 8.27916 10.0597 8.31799 10.0221C8.59127 9.81798 8.90802 9.67976 9.24353 9.61824C9.27201 9.61565 9.27977 9.60012 9.23965 9.54834C9.08502 9.39414 8.89009 9.28661 8.67717 9.23808C8.46426 9.18954 8.24198 9.20196 8.0358 9.27392C7.8505 9.33371 7.68136 9.43515 7.54135 9.57045C7.40133 9.70576 7.29416 9.87133 7.22806 10.0545C7.22538 10.0661 7.21876 10.0765 7.20932 10.0838C7.19989 10.0911 7.18821 10.0949 7.17628 10.0946C6.97374 10.1073 6.77082 10.1129 6.56789 10.1114C6.53552 10.1114 6.51999 10.07 6.52258 10.0389C6.54914 9.90945 6.60233 9.78689 6.67876 9.67904C6.75519 9.57119 6.85321 9.48039 6.96658 9.41242C7.16746 9.2801 7.39859 9.20083 7.6384 9.18201C7.64648 9.17959 7.65385 9.17523 7.65986 9.16932C7.66587 9.16341 7.67035 9.15611 7.6729 9.14808C7.67545 9.14004 7.676 9.1315 7.6745 9.1232C7.673 9.1149 7.6695 9.10709 7.66429 9.10046C7.62469 9.05432 7.57896 9.01382 7.52837 8.98007C7.32894 8.87251 7.09842 8.8373 6.87597 8.8804C6.55749 8.91129 6.26002 9.05323 6.03567 9.28137C5.81132 9.50951 5.67437 9.80931 5.64882 10.1283C5.63588 10.2059 5.65659 10.224 5.58022 10.2499C5.43524 10.2991 5.1634 10.3328 5.01842 10.3638C4.99253 10.3677 4.9537 10.3082 4.96017 10.2823C5.01396 10.0364 5.12185 9.80557 5.27602 9.60659C5.39332 9.44928 5.54466 9.32051 5.71872 9.2299C5.75238 9.21308 5.78345 9.17295 5.75238 9.14706C5.42488 8.86228 4.75435 9.16259 4.48381 9.45902C4.22836 9.7966 4.10209 10.2144 4.12783 10.637C4.12783 10.6577 4.14596 10.6901 4.12783 10.6978C3.95812 10.77 3.78536 10.8348 3.61005 10.892C3.59452 10.8959 3.59193 10.8557 3.58934 10.8402C3.53754 10.5345 3.6057 10.2206 3.77962 9.96386C3.85563 9.8339 3.96458 9.72629 4.09547 9.6519C4.10842 9.64413 4.10583 9.6286 4.09547 9.61565C3.94661 9.42278 3.35893 9.56129 3.179 9.73733C2.76477 10.1412 2.79454 10.5334 2.77513 11.1574C2.77383 11.1871 2.73629 11.301 2.70264 11.3166C2.6291 11.3604 2.5485 11.391 2.46446 11.4072C2.43727 11.4149 2.43468 11.4253 2.42821 11.3981C2.40585 11.3253 2.3673 11.2585 2.31546 11.2027C2.26361 11.1469 2.19981 11.1035 2.12883 11.0759C2.05785 11.0482 1.98154 11.037 1.9056 11.0431C1.82967 11.0491 1.75609 11.0722 1.69037 11.1108C1.63488 11.1464 1.5877 11.1936 1.55202 11.2491C1.51634 11.3046 1.49298 11.3671 1.48353 11.4324C1.47408 11.4976 1.47876 11.5642 1.49725 11.6275C1.51574 11.6908 1.5476 11.7495 1.5907 11.7994C1.61011 11.8214 1.61659 11.8434 1.58681 11.8525C1.51759 11.8738 1.45331 11.9087 1.39777 11.9552C1.34223 12.0017 1.29653 12.0588 1.26337 12.1232C1.23021 12.1876 1.21025 12.258 1.20466 12.3302C1.19907 12.4024 1.20797 12.475 1.23084 12.5437C1.26198 12.621 1.31464 12.6876 1.38256 12.7358C1.45048 12.784 1.53081 12.8117 1.614 12.8156C1.78435 12.8203 1.9519 12.7714 2.09295 12.6758C2.0989 12.6715 2.10562 12.6685 2.11275 12.6668C2.11987 12.6652 2.12725 12.6649 2.13446 12.6661C2.14167 12.6673 2.14858 12.6699 2.15478 12.6738C2.16099 12.6777 2.16637 12.6827 2.17061 12.6887C2.24058 12.801 2.35224 12.881 2.4811 12.9111C2.60996 12.9412 2.7455 12.9189 2.85797 12.8492C3.06767 12.7107 3.16087 12.4958 3.00554 12.1256C2.99648 12.1049 3.03143 12.0661 3.04955 12.0557C4.28966 11.3419 5.68887 10.9503 7.11933 10.9166C7.32097 10.934 7.51944 10.978 7.7096 11.0473C7.71993 11.0495 7.72994 11.053 7.73937 11.0577L7.74196 12.2758C7.72854 12.2882 7.71377 12.299 7.69795 12.3081C7.43232 12.4708 7.2339 12.7235 7.13874 13.0201C7.13356 13.0421 7.13098 13.0473 7.09344 13.0511C6.84361 13.0757 6.57695 13.112 6.32841 13.1314C6.31417 13.134 6.28699 13.1068 6.29217 13.0926C6.47225 12.6111 6.80095 12.1994 7.23065 11.9172C7.2418 11.906 7.24907 11.8916 7.2514 11.876C7.25373 11.8604 7.251 11.8444 7.24359 11.8305C7.18278 11.7721 7.10783 11.7307 7.02612 11.7101C6.80997 11.6937 6.59294 11.7274 6.39198 11.8087C6.19101 11.89 6.01155 12.0166 5.86759 12.1787C5.6096 12.5002 5.46734 12.8991 5.46371 13.3113C5.46242 13.3398 5.4676 13.3864 5.43912 13.3955C5.27861 13.446 5.10127 13.4913 4.93428 13.5379C4.91486 13.543 4.88898 13.5236 4.88509 13.5029C4.84294 13.2431 4.8805 12.9767 4.9928 12.7387C5.10511 12.5007 5.28689 12.3023 5.5142 12.1696C5.58022 12.1178 5.46501 12.0376 5.38216 12.0376C5.13976 12.0244 4.8988 12.0824 4.68886 12.2042C4.47891 12.3261 4.30912 12.5066 4.20032 12.7236C4.08079 13.0534 4.06722 13.4123 4.16149 13.7502C4.16537 13.7799 4.18608 13.8317 4.15372 13.8395C4.05146 13.8641 3.81069 13.956 3.73561 13.9793C3.70843 13.9883 3.69031 13.9754 3.67477 13.9404C3.61574 13.735 3.60642 13.5185 3.64759 13.3087C3.70623 13.0696 3.82574 12.8498 3.9945 12.6706C4.00486 12.6576 4.00874 12.6291 3.9945 12.6227C3.84066 12.5532 3.66686 12.5417 3.5052 12.5903C3.37324 12.6237 3.24991 12.6849 3.14344 12.7697C3.03697 12.8545 2.9498 12.9611 2.88774 13.0822C2.68192 13.4667 2.735 13.8369 2.95376 14.3831C2.96412 14.409 2.97706 14.4582 2.95376 14.4738L2.77642 14.5773C2.75441 14.5941 2.735 14.5799 2.71946 14.5579C2.64827 14.4569 2.55895 14.2964 2.44763 14.2472C2.35993 14.2035 2.26195 14.1847 2.1643 14.1926C2.06664 14.2006 1.97304 14.2352 1.8936 14.2925C1.81591 14.3601 1.75977 14.449 1.73215 14.5482C1.70454 14.6473 1.70666 14.7525 1.73827 14.8504C1.77446 14.9203 1.81784 14.9863 1.86771 15.0472C1.88066 15.0653 1.86642 15.0938 1.85088 15.108C1.77451 15.1753 1.66966 15.2245 1.60752 15.2893C1.54017 15.376 1.50254 15.4822 1.50021 15.592C1.49788 15.7018 1.53097 15.8094 1.59458 15.899C1.65783 15.9893 1.75069 16.0547 1.85708 16.0838C1.96346 16.1128 2.07667 16.1038 2.17709 16.0582C2.28128 16.0137 2.38171 15.9609 2.4774 15.9002C2.51235 15.8769 2.53565 15.8342 2.56801 15.8679C2.64647 15.9572 2.7462 16.0254 2.85797 16.0659C2.93559 16.0867 3.0168 16.0902 3.09594 16.0764C3.17508 16.0625 3.25025 16.0316 3.31621 15.9857C3.3963 15.9477 3.46131 15.884 3.50075 15.8046C3.5402 15.7252 3.5518 15.6349 3.53368 15.5482C3.49295 15.4217 3.43029 15.3034 3.34857 15.1986C3.30585 15.1533 3.30326 15.1559 3.34857 15.1287C4.02397 14.73 4.74559 14.4152 5.49737 14.1916C6.20603 13.9784 6.94586 13.8878 7.685 13.9236H7.74455L7.74843 16.4465H1.02243C0.952529 13.6854 0.872273 9.31404 0.820494 6.30314C0.826319 6.2997 0.832374 6.29667 0.838617 6.29407C2.04421 5.8076 3.28103 5.40239 4.54077 5.08117C6.27799 4.65822 8.04553 4.37127 9.82733 4.22294C10.5885 4.15696 11.3519 4.11982 12.1159 4.11162H12.1146ZM8.11735 5.1679C7.79491 5.17537 7.48224 5.28005 7.22029 5.46821C6.85008 5.71157 6.63002 6.46883 6.58601 6.73937C6.58375 6.75177 6.57745 6.76307 6.56807 6.77151C6.5587 6.77994 6.5468 6.78503 6.53423 6.78597C6.23969 6.82313 5.94753 6.87715 5.65918 6.94778C5.65012 6.94907 5.64364 6.93483 5.64364 6.92577C5.66606 6.64092 5.7837 6.3719 5.97761 6.16204C6.17446 5.9723 6.38805 5.80073 6.61578 5.64943C6.63261 5.6352 6.62096 5.59118 6.60025 5.58342C6.43579 5.51769 6.25994 5.48522 6.08285 5.48788C5.90577 5.49055 5.73097 5.5283 5.56857 5.59895C5.3394 5.69613 5.13886 5.85022 4.98594 6.04663C4.83303 6.24304 4.73282 6.47525 4.69481 6.72125C4.66465 6.89646 4.65207 7.07425 4.65727 7.25197C4.65986 7.27398 4.61843 7.27527 4.59902 7.28175C4.28058 7.38142 3.94661 7.49792 3.67995 7.58724C3.66701 7.59242 3.62947 7.58983 3.62947 7.57429C3.61949 7.27549 3.69832 6.98043 3.856 6.72642C4.01133 6.474 4.3 6.33161 4.5097 6.11932C4.52394 6.10379 4.54594 6.06237 4.52394 6.05331C3.99321 5.83972 3.49226 6.05848 3.06897 6.53873C2.92565 6.74927 2.82848 6.98776 2.78387 7.23852C2.73925 7.48927 2.74818 7.74664 2.81008 7.9937C2.82173 8.0403 2.81008 8.09078 2.78548 8.10114C2.68898 8.14628 2.58951 8.18477 2.48776 8.21634C2.48325 8.21792 2.47845 8.21848 2.4737 8.21799C2.46895 8.21749 2.46437 8.21595 2.46029 8.21348C2.45621 8.211 2.45272 8.20765 2.45009 8.20367C2.44745 8.19969 2.44573 8.19518 2.44504 8.19045C2.32465 7.8073 1.87548 7.88237 1.67225 7.99888C1.56484 8.05933 1.48567 8.15977 1.45197 8.27833C1.41827 8.39688 1.43277 8.52395 1.49232 8.63186C1.49537 8.63641 1.49746 8.64152 1.49846 8.6469C1.49946 8.65228 1.49935 8.6578 1.49814 8.66314C1.49693 8.66847 1.49464 8.6735 1.49141 8.67792C1.48818 8.68233 1.48409 8.68605 1.47937 8.68882C1.41086 8.72156 1.34954 8.76762 1.29901 8.8243C1.24847 8.88098 1.20972 8.94715 1.18502 9.01896C1.16032 9.09077 1.15017 9.16678 1.15514 9.24255C1.16012 9.31833 1.18013 9.39236 1.21401 9.46032C1.27121 9.54982 1.35788 9.61652 1.45904 9.64891C1.5602 9.68129 1.6695 9.67731 1.76804 9.63766C1.88025 9.59443 1.9871 9.53839 2.08647 9.47067C2.09272 9.46756 2.09976 9.46639 2.10668 9.46731C2.11361 9.46823 2.12009 9.47121 2.12531 9.47585C2.16534 9.5324 2.2165 9.58017 2.27566 9.61624C2.33481 9.65231 2.40071 9.67592 2.46931 9.68561C2.53791 9.69531 2.60777 9.69089 2.6746 9.67263C2.74144 9.65437 2.80383 9.62264 2.85797 9.57941C3.00683 9.47326 3.06508 9.45514 3.12204 9.26356C3.13052 9.19429 3.12454 9.12402 3.10449 9.05718C3.08443 8.99034 3.05074 8.92839 3.00554 8.87522C2.99001 8.86228 3.00424 8.82345 3.02237 8.81438C4.70493 7.94762 6.5618 7.47278 8.45391 7.42543C9.14078 7.44578 9.80053 7.69809 10.3257 8.14127C10.3346 8.15417 10.3466 8.16461 10.3607 8.17162C10.3747 8.17864 10.3903 8.182 10.406 8.18139C10.4219 8.17472 10.4364 8.16485 10.4484 8.15238C10.4604 8.13992 10.4698 8.12512 10.4759 8.1089C10.5198 7.95264 10.5182 7.78711 10.4715 7.63168C10.4247 7.47625 10.3346 7.33736 10.2118 7.23126C9.99753 7.0078 9.72185 6.85285 9.41958 6.78597C9.40404 6.78208 9.39369 6.74843 9.40663 6.73807C9.52973 6.61393 9.67744 6.51693 9.84027 6.45329C10.099 6.40963 10.361 6.38798 10.6234 6.38857C10.6415 6.38728 10.6687 6.36915 10.6623 6.35233C10.611 6.20919 10.5192 6.08405 10.3981 5.99212C10.2769 5.9002 10.1317 5.84545 9.98008 5.83454C9.67486 5.79647 9.36502 5.84118 9.08302 5.96399C8.79173 6.12152 8.56328 6.37419 8.43579 6.67982C8.43196 6.68755 8.42605 6.69406 8.41874 6.69863C8.41143 6.7032 8.40299 6.70565 8.39437 6.70571C8.13818 6.69642 7.8818 6.6934 7.62546 6.69665C7.60734 6.69665 7.58015 6.69665 7.58015 6.67853C7.61763 6.42646 7.73305 6.19245 7.91024 6.00929C8.1677 5.78614 8.46689 5.61631 8.79047 5.50963C8.81506 5.50187 8.84225 5.46303 8.82801 5.44362C8.76041 5.35025 8.67111 5.27472 8.56782 5.22356C8.42136 5.1847 8.27013 5.16683 8.11865 5.17049L8.11735 5.1679ZM12.525 7.24809H23.9745C23.9589 8.13609 23.9421 9.10305 23.9227 10.0894H12.525V7.24809ZM8.10958 10.391L16.7384 10.3949C16.7435 10.3945 16.7486 10.396 16.7527 10.3991C16.7567 10.4022 16.7595 10.4067 16.7604 10.4117L16.7579 17.0627C16.7514 17.4003 16.6888 17.7345 16.5728 18.0516C16.2292 18.9896 15.5702 19.779 14.7087 20.2846C14.0273 20.6919 13.2501 20.9112 12.4564 20.9202C11.3802 20.9071 10.3435 20.5126 9.5309 19.8069C9.09183 19.4404 8.73681 18.9836 8.49 18.4676C8.24318 17.9517 8.11035 17.3886 8.10052 16.8167L8.09146 10.4156C8.09146 10.3988 8.09276 10.391 8.10958 10.391ZM17.163 10.5024H23.9162C23.9007 11.3373 23.8838 12.18 23.8722 12.9955H17.163V11.0603V10.5024ZM8.31023 10.5943C8.2934 10.5943 8.2921 10.6007 8.2921 10.6176L8.30117 16.7701C8.30942 17.3198 8.43548 17.8614 8.67085 18.3582C8.90621 18.8551 9.2454 19.2957 9.66552 19.6503C10.4375 20.3274 11.4257 20.707 12.4525 20.7208C13.2105 20.712 13.9524 20.5006 14.6013 20.1085C15.4252 19.62 16.0539 18.8605 16.3799 17.9597C16.4904 17.6548 16.5498 17.3338 16.5559 17.0096L16.5585 10.615C16.5583 10.6124 16.5577 10.6099 16.5565 10.6076C16.5554 10.6053 16.5538 10.6033 16.5519 10.6016C16.55 10.5999 16.5478 10.5986 16.5453 10.5978C16.5429 10.597 16.5403 10.5967 16.5378 10.5969L8.31023 10.5943ZM14.0524 10.9878C14.052 10.9878 14.0529 10.9878 14.0524 10.9878C14.0777 10.9916 14.1028 11.0021 14.1227 11.0183C14.1425 11.0345 14.1576 11.0557 14.1664 11.0797L14.4796 12.0052C14.486 12.0196 14.4889 12.0353 14.4883 12.051C14.4876 12.0667 14.4833 12.082 14.4757 12.0958C14.4673 12.1061 14.4566 12.1142 14.4444 12.1196C14.4323 12.125 14.4191 12.1275 14.4058 12.1269C14.3879 12.1273 14.3704 12.122 14.3557 12.1118C14.3411 12.1015 14.3301 12.0869 14.3243 12.0699L14.2751 11.9081H13.8479L13.8013 12.0738C13.7884 12.1256 13.7495 12.1308 13.7094 12.1308C13.6979 12.1292 13.6868 12.1251 13.677 12.1188C13.6672 12.1126 13.6588 12.1043 13.6525 12.0945C13.645 12.0852 13.6399 12.0742 13.6377 12.0625C13.6354 12.0508 13.6361 12.0387 13.6395 12.0272L13.9398 11.0849C13.9465 11.0592 13.9609 11.0361 13.981 11.0188C14.0011 11.0014 14.026 10.9906 14.0524 10.9878ZM13.0648 10.9968C13.0747 10.9963 13.0846 10.9963 13.0945 10.9968C13.1606 10.9925 13.2262 11.01 13.2812 11.0468C13.3362 11.0835 13.3775 11.1374 13.3987 11.2001C13.4013 11.2077 13.4023 11.2158 13.4017 11.2238C13.4011 11.2319 13.3988 11.2397 13.3951 11.2469C13.3913 11.254 13.3861 11.2603 13.3799 11.2654C13.3736 11.2705 13.3664 11.2742 13.3586 11.2764C13.3431 11.2845 13.325 11.2863 13.3082 11.2815C13.2913 11.2767 13.2769 11.2656 13.268 11.2506C13.2516 11.2183 13.2274 11.1908 13.1975 11.1704C13.1676 11.15 13.1331 11.1375 13.0971 11.1341C13.0589 11.1364 13.0222 11.1499 12.9916 11.1729C12.961 11.1959 12.9378 11.2274 12.925 11.2635C12.8793 11.3525 12.8549 11.4509 12.8538 11.5509C12.8513 11.6525 12.8716 11.7533 12.9133 11.846C12.9287 11.886 12.9561 11.9203 12.9919 11.9439C13.0276 11.9676 13.0698 11.9795 13.1127 11.978C13.1792 11.9583 13.2369 11.9163 13.276 11.859C13.3152 11.8017 13.3334 11.7326 13.3275 11.6635V11.613H13.1528C13.1422 11.6134 13.1316 11.6116 13.1218 11.6076C13.112 11.6035 13.1032 11.5975 13.0959 11.5897C13.0887 11.582 13.0832 11.5728 13.0798 11.5627C13.0765 11.5527 13.0753 11.542 13.0764 11.5315C13.0764 11.5017 13.0855 11.4667 13.1528 11.4667H13.4013C13.4842 11.4667 13.4958 11.5289 13.4958 11.5832C13.4974 11.6491 13.4926 11.715 13.4816 11.78C13.4558 11.9019 13.3869 12.0104 13.2874 12.0855C13.2287 12.1208 13.1617 12.14 13.0932 12.1411C13.0317 12.1401 12.9716 12.122 12.9198 12.0889C12.8679 12.0557 12.8262 12.0089 12.7994 11.9534C12.7334 11.8302 12.7008 11.6919 12.7049 11.5522C12.7023 11.4139 12.7382 11.2777 12.8085 11.1586C12.8323 11.1108 12.8688 11.0705 12.914 11.042C12.9592 11.0134 13.0113 10.9978 13.0648 10.9968ZM9.19693 10.9994C9.19866 10.9994 9.20038 10.9994 9.20211 10.9994C9.43899 11.002 9.51666 11.1431 9.51666 11.1936C9.51666 11.2389 9.4377 11.2972 9.39369 11.2441C9.36843 11.2153 9.3371 11.1925 9.30196 11.1772C9.26682 11.162 9.22873 11.1548 9.19046 11.1561C9.14881 11.1518 9.10693 11.1617 9.07167 11.1843C9.0364 11.2068 9.00983 11.2407 8.99629 11.2803C8.99238 11.2998 8.99246 11.3199 8.99651 11.3394C9.00057 11.3589 9.00851 11.3773 9.01988 11.3936C9.03124 11.41 9.04579 11.4238 9.06265 11.4344C9.0795 11.4449 9.09832 11.452 9.11797 11.4551C9.23962 11.4625 9.35792 11.4979 9.46359 11.5586H9.46229C9.49824 11.5853 9.52676 11.6207 9.54512 11.6615C9.56347 11.7023 9.57106 11.7471 9.56715 11.7916C9.56911 11.8756 9.53796 11.957 9.48042 12.0182C9.43787 12.0582 9.38749 12.089 9.33247 12.1086C9.27744 12.1282 9.21895 12.1362 9.16068 12.1321C9.09301 12.1345 9.02588 12.1191 8.9661 12.0872C8.90631 12.0554 8.856 12.0084 8.82024 11.9509C8.81506 11.9379 8.8073 11.8693 8.86425 11.8499C8.88334 11.8454 8.90328 11.8462 8.92196 11.8521C8.94065 11.858 8.95738 11.8689 8.9704 11.8835C9.0256 11.9343 9.09736 11.9633 9.17233 11.9651C9.24191 11.9673 9.30995 11.9443 9.36391 11.9004C9.3836 11.8814 9.3971 11.8569 9.40265 11.8301C9.40819 11.8033 9.40552 11.7755 9.39498 11.7502C9.3679 11.7092 9.33063 11.676 9.28683 11.6538C9.24304 11.6315 9.19422 11.621 9.14515 11.6234C9.06205 11.6229 8.98233 11.5904 8.9225 11.5327C8.8903 11.4993 8.86565 11.4594 8.85024 11.4156C8.83483 11.3718 8.82901 11.3253 8.83319 11.279C8.8374 11.2364 8.85124 11.1952 8.87366 11.1587C8.89608 11.1221 8.92651 11.0911 8.96263 11.068C9.032 11.022 9.11369 10.9981 9.19693 10.9994ZM11.3315 10.9994C11.3311 10.9994 11.3319 10.9994 11.3315 10.9994C11.3341 10.9993 11.338 10.9993 11.3406 10.9994H11.8001C11.8207 10.9994 11.8404 11.0076 11.855 11.0222C11.8696 11.0367 11.8778 11.0565 11.8778 11.0771C11.8778 11.0977 11.8696 11.1174 11.855 11.132C11.8404 11.1466 11.8207 11.1548 11.8001 11.1548L11.6525 11.1574V12.0402C11.65 12.0599 11.6404 12.078 11.6255 12.0911C11.6106 12.1042 11.5915 12.1115 11.5716 12.1115C11.5518 12.1115 11.5326 12.1042 11.5177 12.0911C11.5028 12.078 11.4932 12.0599 11.4907 12.0402V11.1561H11.3406C11.32 11.1573 11.2997 11.1502 11.2843 11.1365C11.2689 11.1228 11.2596 11.1035 11.2584 11.0829C11.2572 11.0623 11.2642 11.0421 11.2779 11.0267C11.2916 11.0113 11.3109 11.0019 11.3315 11.0007V10.9994ZM12.0564 10.9994C12.0568 10.9994 12.0573 10.9994 12.0577 10.9994C12.0603 10.9993 12.0629 10.9993 12.0654 10.9994H12.5237C12.5443 10.9994 12.564 11.0076 12.5786 11.0222C12.5932 11.0367 12.6014 11.0565 12.6014 11.0771C12.6014 11.0977 12.5932 11.1174 12.5786 11.132C12.564 11.1466 12.5443 11.1548 12.5237 11.1548L12.3761 11.1574V12.0402C12.3736 12.0599 12.364 12.078 12.3491 12.0911C12.3342 12.1042 12.3151 12.1115 12.2952 12.1115C12.2754 12.1115 12.2562 12.1042 12.2413 12.0911C12.2264 12.078 12.2168 12.0599 12.2143 12.0402V11.1561H12.0654C12.0449 11.1573 12.0246 11.1502 12.0092 11.1365C11.9938 11.1228 11.9845 11.1035 11.9832 11.0829C11.982 11.0623 11.9891 11.0421 12.0028 11.0267C12.0165 11.0113 12.0358 11.0019 12.0564 11.0007V10.9994ZM15.6032 10.9994C15.6041 10.9994 15.6049 10.9994 15.6058 10.9994C15.6084 10.9993 15.611 10.9993 15.6136 10.9994H16.0705C16.0911 10.9994 16.1109 11.0076 16.1254 11.0222C16.14 11.0367 16.1482 11.0565 16.1482 11.0771C16.1482 11.0977 16.14 11.1174 16.1254 11.132C16.1109 11.1466 16.0911 11.1548 16.0705 11.1548L15.9255 11.1574V12.0402C15.923 12.0599 15.9134 12.078 15.8985 12.0911C15.8836 12.1042 15.8645 12.1115 15.8446 12.1115C15.8248 12.1115 15.8056 12.1042 15.7907 12.0911C15.7758 12.078 15.7662 12.0599 15.7637 12.0402V11.1561H15.6136C15.593 11.1573 15.5727 11.1502 15.5573 11.1365C15.5419 11.1228 15.5326 11.1035 15.5314 11.0829C15.5302 11.0623 15.5372 11.0421 15.5509 11.0267C15.5646 11.0113 15.5839 11.0019 15.6045 11.0007L15.6032 10.9994ZM14.7269 11.0046C14.732 11.0041 14.7372 11.0041 14.7424 11.0046H14.9883C15.0836 11.0018 15.1775 11.028 15.2576 11.0797C15.2988 11.1114 15.3326 11.1517 15.3567 11.1977C15.3808 11.2437 15.3947 11.2944 15.3974 11.3463C15.403 11.3933 15.3977 11.4409 15.3817 11.4854C15.3658 11.5298 15.3397 11.57 15.3055 11.6026C15.2631 11.6462 15.2113 11.6795 15.154 11.6997L15.1281 11.7088L15.3327 11.9677C15.351 11.9874 15.3616 12.0132 15.3624 12.0402C15.3598 12.0816 15.3327 12.1049 15.2848 12.1049C15.2707 12.1055 15.2568 12.1026 15.2441 12.0965C15.2315 12.0904 15.2206 12.0813 15.2123 12.0699L14.9702 11.736H14.8188V12.0337C14.8203 12.045 14.8194 12.0565 14.8159 12.0674C14.8124 12.0783 14.8066 12.0883 14.7988 12.0966C14.7909 12.1049 14.7813 12.1114 14.7707 12.1155C14.76 12.1196 14.7486 12.1213 14.7372 12.1204C14.726 12.1209 14.7148 12.1189 14.7044 12.1146C14.694 12.1103 14.6847 12.1038 14.6771 12.0956C14.6694 12.0873 14.6637 12.0775 14.6602 12.0668C14.6567 12.0562 14.6556 12.0449 14.657 12.0337V11.0939C14.6556 11.0705 14.663 11.0475 14.6777 11.0292C14.6907 11.0156 14.7081 11.0069 14.7269 11.0046ZM9.7173 11.0072C9.7186 11.0072 9.71989 11.0072 9.72118 11.0072H10.1833C10.2041 11.0072 10.224 11.0154 10.2387 11.0301C10.2534 11.0448 10.2616 11.0647 10.2616 11.0855C10.2616 11.1063 10.2534 11.1262 10.2387 11.1409C10.224 11.1556 10.2041 11.1638 10.1833 11.1638H10.0331V12.0492C10.0307 12.0689 10.0211 12.087 10.0062 12.1002C9.99127 12.1133 9.9721 12.1205 9.95225 12.1205C9.93239 12.1205 9.91322 12.1133 9.89833 12.1002C9.88343 12.087 9.87384 12.0689 9.87134 12.0492V11.1638H9.72118C9.70059 11.1643 9.68063 11.1567 9.6657 11.1424C9.65077 11.1282 9.64209 11.1087 9.64158 11.0881C9.64106 11.0675 9.64875 11.0475 9.66295 11.0326C9.67715 11.0177 9.6967 11.0077 9.7173 11.0072ZM10.472 11.0072C10.4728 11.0072 10.4737 11.0072 10.4746 11.0072C10.4856 11.0068 10.4966 11.0087 10.5069 11.0128C10.5171 11.0168 10.5265 11.0228 10.5344 11.0306C10.5422 11.0383 10.5485 11.0476 10.5526 11.0578C10.5568 11.068 10.5589 11.079 10.5587 11.09V11.6997C10.5542 11.7683 10.5709 11.8365 10.6066 11.8952C10.6258 11.92 10.6509 11.9396 10.6796 11.9522C10.7083 11.9649 10.7397 11.9702 10.771 11.9677C10.8019 11.9707 10.8331 11.9656 10.8615 11.9529C10.8899 11.9402 10.9145 11.9203 10.9328 11.8952C10.9668 11.8364 10.9826 11.7688 10.9781 11.701V11.0887C10.9806 11.0691 10.9915 11.0509 11.0064 11.0378C11.0213 11.0247 11.0404 11.0174 11.0603 11.0174C11.0802 11.0174 11.0993 11.0247 11.1142 11.0378C11.1291 11.0509 11.1387 11.0691 11.1412 11.0887V11.648C11.1502 11.7656 11.125 11.8834 11.0687 11.9871C11.0357 12.0335 10.9911 12.0704 10.9392 12.0941C10.8874 12.1177 10.8303 12.1272 10.7736 12.1217C10.7166 12.1264 10.6594 12.1165 10.6073 12.093C10.5552 12.0694 10.51 12.033 10.4759 11.9871C10.416 11.8846 10.3885 11.7664 10.3969 11.648V11.0887C10.3968 11.0682 10.4045 11.0484 10.4184 11.0333C10.4324 11.0181 10.4515 11.0088 10.472 11.0072ZM14.8136 11.1561V11.5806H14.9819C15.0139 11.5842 15.0464 11.5811 15.0772 11.5715C15.108 11.5619 15.1364 11.5461 15.1608 11.5249C15.1851 11.5037 15.2048 11.4777 15.2185 11.4485C15.2323 11.4194 15.2399 11.3876 15.2408 11.3554C15.2401 11.3286 15.2339 11.3022 15.2225 11.2779C15.2112 11.2537 15.1949 11.232 15.1747 11.2143C15.152 11.1939 15.1253 11.1783 15.0964 11.1683C15.0676 11.1583 15.037 11.1541 15.0065 11.1561H14.8136ZM14.0576 11.1755L13.8816 11.7826H14.2414L14.0576 11.1755ZM12.5819 12.4764C12.5962 12.4764 12.6091 12.479 12.6104 12.4906C12.613 12.5139 12.5897 12.5282 12.556 12.545C12.5059 12.5663 12.4634 12.6024 12.4344 12.6486C12.3985 12.7129 12.381 12.7859 12.3839 12.8596C12.3888 12.8817 12.3987 12.9024 12.4128 12.9201C12.427 12.9379 12.445 12.9521 12.4654 12.9618C12.5228 12.9888 12.5859 13.0013 12.6492 12.9981C12.747 12.9922 12.8421 12.9643 12.9276 12.9165C13.0428 12.8792 13.1654 12.8704 13.2848 12.8906C13.3749 12.8916 13.4625 12.92 13.536 12.9722C13.567 12.9942 13.5618 13.0214 13.5502 13.024C13.5321 13.0304 13.5127 13.0084 13.4932 13.011C13.4307 13.0173 13.3691 13.0303 13.3094 13.0498C13.2318 13.0848 13.1968 13.0977 13.1593 13.1664C13.1443 13.1955 13.141 13.2293 13.1502 13.2608C13.1631 13.2919 13.1955 13.3126 13.202 13.3346C13.2209 13.3926 13.2488 13.4472 13.2848 13.4964C13.2968 13.5075 13.3098 13.5175 13.3237 13.5262C13.4525 13.6224 13.5745 13.7275 13.6887 13.8408C13.7137 13.8771 13.7313 13.918 13.7405 13.9611C13.7444 13.9767 13.7314 14 13.7172 13.9935C13.7005 13.9824 13.6849 13.9699 13.6706 13.956C13.651 13.935 13.6278 13.9179 13.602 13.9055C13.5298 13.8762 13.4516 13.8651 13.3741 13.8731C13.3392 13.8731 13.2693 13.9042 13.3094 13.9197C13.378 13.9548 13.4367 14.0064 13.4803 14.0699C13.5777 14.1801 13.6275 14.3244 13.6188 14.4712C13.6188 14.4789 13.6033 14.4841 13.5994 14.4789C13.5657 14.4232 13.5208 14.3751 13.4673 14.3378C13.3888 14.2803 13.2927 14.252 13.1955 14.2576C13.1761 14.2589 13.1178 14.2576 13.1243 14.2757C13.1852 14.3528 13.2385 14.4356 13.2835 14.5229C13.3301 14.6359 13.3475 14.7588 13.334 14.8802C13.3327 14.8867 13.3081 14.8932 13.3042 14.8867C13.274 14.851 13.2406 14.8181 13.2046 14.7883C13.1684 14.7561 13.1274 14.7298 13.0829 14.7106C12.9934 14.69 12.8994 14.7029 12.8188 14.7469C12.7473 14.7863 12.6889 14.8457 12.6505 14.9178C12.6046 14.9992 12.5772 15.0898 12.5703 15.1831C12.556 15.2969 12.5749 15.4125 12.6247 15.5158C12.6792 15.6132 12.7663 15.6883 12.8706 15.7281C13.0102 15.7725 13.1566 15.7918 13.3029 15.785C13.4829 15.7915 13.6628 15.7643 13.8427 15.7591C14.0133 15.743 14.1851 15.7443 14.3553 15.763C14.4933 15.7904 14.6249 15.8431 14.7437 15.9184C14.8406 15.9923 14.9335 16.0714 15.022 16.1553C15.0323 16.163 15.0556 16.1514 15.0673 16.1436C15.1523 16.062 15.2113 15.957 15.2369 15.842C15.2536 15.7305 15.2278 15.6168 15.1644 15.5236C15.1035 15.4135 15.0142 15.2906 14.9443 15.1741C14.8495 15.0517 14.7622 14.9238 14.6828 14.7909C14.6399 14.7017 14.632 14.5996 14.6608 14.5048C14.6855 14.4347 14.7347 14.3758 14.7993 14.3391C14.8136 14.3301 14.8278 14.3469 14.8213 14.3663C14.8029 14.4124 14.7993 14.4631 14.811 14.5113C14.8328 14.5808 14.8725 14.6433 14.9262 14.6925C14.943 14.7055 14.987 14.686 14.9974 14.6653C15.0207 14.6097 15.0065 14.5229 15.0272 14.466C15.0533 14.36 15.1009 14.2604 15.167 14.1734C15.3097 14.0675 15.4666 13.9821 15.633 13.9197C15.6757 13.8951 15.7029 13.7838 15.7508 13.8019C15.7987 13.8188 15.7728 13.9314 15.7365 13.9857C15.6848 14.066 15.6239 14.1152 15.567 14.1877C15.4892 14.2875 15.4211 14.3946 15.3637 14.5074C15.3324 14.5609 15.3192 14.6231 15.3262 14.6847C15.332 14.7107 15.3435 14.7351 15.3599 14.7561C15.3762 14.7772 15.397 14.7943 15.4207 14.8064C15.4492 14.8194 15.4854 14.7935 15.5113 14.7741C15.561 14.7378 15.6036 14.6926 15.6369 14.6407C15.6666 14.5915 15.6498 14.5255 15.6783 14.475C15.686 14.4634 15.7171 14.466 15.7262 14.475C15.7573 14.5035 15.7775 14.542 15.7831 14.5838C15.7859 14.6329 15.7816 14.6822 15.7702 14.7301C15.7663 14.7404 15.7391 14.765 15.7301 14.7883C15.723 14.8063 15.7144 14.8237 15.7042 14.8401C15.6576 14.9216 15.6032 14.9902 15.5424 15.0032C15.5294 15.0045 15.5204 15.0304 15.5294 15.042C15.5647 15.1092 15.6147 15.1676 15.6757 15.2129C15.706 15.2279 15.739 15.2368 15.7728 15.239C15.8065 15.2413 15.8404 15.2368 15.8724 15.2258C15.9074 15.2155 15.9346 15.1909 15.9747 15.1779C15.9915 15.1728 15.9812 15.1831 15.9812 15.1999C15.9808 15.2379 15.9742 15.2755 15.9618 15.3113C15.9409 15.356 15.9071 15.3934 15.8647 15.4187C15.7987 15.4559 15.7253 15.478 15.6498 15.4834C15.6149 15.4899 15.5618 15.5158 15.5747 15.5494C15.5858 15.5892 15.6043 15.6265 15.6291 15.6595C15.656 15.6887 15.693 15.7068 15.7326 15.71C15.7902 15.7124 15.847 15.696 15.8945 15.6634C15.9462 15.6297 15.9734 15.5676 16.0187 15.5236C16.0278 15.5158 16.0524 15.5236 16.0524 15.5365C16.0506 15.6078 16.0324 15.6778 15.9993 15.741C15.956 15.8106 15.8997 15.8712 15.8336 15.9197C15.8142 15.9365 15.7909 15.9572 15.7909 15.9831C15.8009 16.0234 15.8204 16.0607 15.8479 16.0918C15.8734 16.128 15.9119 16.153 15.9553 16.1617C15.9981 16.1698 16.042 16.1698 16.0847 16.1617C16.1016 16.1617 16.0977 16.1915 16.0834 16.2019C16.0419 16.2444 15.9895 16.2748 15.932 16.2899C15.8786 16.3077 15.8215 16.3112 15.7663 16.3002C15.6615 16.2743 15.5928 16.2355 15.4893 16.2057C15.4335 16.1844 15.3726 16.1804 15.3145 16.1941C15.259 16.2152 15.2111 16.2527 15.1773 16.3015C15.1571 16.3251 15.1437 16.3538 15.1385 16.3844C15.1307 16.4659 15.1709 16.5527 15.145 16.6329C15.1189 16.7367 15.0838 16.8381 15.0401 16.9358C14.996 17.0107 14.9463 17.0821 14.8912 17.1494C14.8395 17.2193 14.7709 17.2452 14.7359 17.3216C14.7211 17.3497 14.7047 17.3769 14.6867 17.4031C14.6391 17.4948 14.6134 17.5962 14.6116 17.6995C14.6249 17.7976 14.6627 17.8907 14.7217 17.9701L14.9197 18.2769C14.9338 18.3108 14.9378 18.3481 14.9314 18.3843C14.93 18.4029 14.9241 18.4209 14.9142 18.4367C14.9043 18.4525 14.8906 18.4656 14.8744 18.4749C14.6115 18.6228 14.4169 18.8677 14.332 19.1571L14.3295 19.1739V19.1791C14.3246 19.199 14.3153 19.2176 14.3023 19.2335C14.236 19.3006 14.1497 19.3443 14.0563 19.3577C13.9851 19.3772 13.9139 19.3953 13.8427 19.4173C13.8195 19.4234 13.7993 19.4376 13.7858 19.4574C13.7736 19.4767 13.7682 19.4995 13.7703 19.5222C13.7724 19.5449 13.7819 19.5662 13.7974 19.583C13.8189 19.6093 13.8324 19.6412 13.8363 19.6749C13.8374 19.6944 13.8314 19.7137 13.8194 19.7293C13.809 19.7407 13.7968 19.7503 13.7832 19.7577C13.6955 19.8077 13.6014 19.8456 13.5036 19.8703C13.4389 19.8846 13.3923 19.8678 13.413 19.794C13.4489 19.6655 13.4912 19.5389 13.5398 19.4147C13.5824 19.3417 13.6413 19.2797 13.712 19.2335C13.7993 19.1583 13.8909 19.0883 13.9864 19.0238C14.0488 18.981 14.1013 18.9254 14.1405 18.8607C14.2164 18.7379 14.2985 18.6191 14.3864 18.5047C14.404 18.481 14.4164 18.4539 14.4229 18.4252C14.4293 18.3964 14.4297 18.3666 14.424 18.3377C14.4155 18.2857 14.3943 18.2366 14.3622 18.1948C14.3301 18.153 14.2882 18.1198 14.2401 18.0982C14.2041 18.082 14.1674 18.0673 14.1301 18.0542C14.0044 18.0109 13.8938 17.9323 13.8117 17.8277C13.8027 17.8139 13.7909 17.8021 13.7771 17.7932C13.7633 17.7843 13.7477 17.7784 13.7314 17.7759C13.6499 17.7785 13.6266 17.8924 13.624 17.9545C13.6174 18.046 13.6191 18.1378 13.6292 18.229C13.6371 18.2594 13.6389 18.2911 13.6343 18.3222C13.6302 18.3331 13.6234 18.3428 13.6146 18.3505C13.6058 18.3582 13.5952 18.3636 13.5838 18.3662C13.327 18.458 13.0816 18.5792 12.8525 18.7273C12.8196 18.7519 12.7919 18.7827 12.7709 18.818L12.7489 18.8555C12.7202 18.9034 12.6757 18.9399 12.6231 18.9588C12.5705 18.9777 12.5129 18.9778 12.4603 18.959C12.4415 18.9534 12.4225 18.9487 12.4033 18.9448C12.3739 18.9419 12.3445 18.9497 12.3205 18.9668C12.3003 18.9792 12.2823 18.995 12.2674 19.0134C12.2616 19.0208 12.2572 19.0291 12.2544 19.038V19.0458C12.2542 19.0492 12.2542 19.0527 12.2544 19.0561C12.2552 19.0637 12.257 19.071 12.2596 19.0781L12.2881 19.1558C12.2945 19.1669 12.2983 19.1794 12.2992 19.1922C12.3001 19.205 12.2982 19.2179 12.2934 19.2298C12.2887 19.2417 12.2814 19.2525 12.2719 19.2612C12.2625 19.2699 12.2512 19.2763 12.2389 19.2801C12.1545 19.3142 12.0663 19.3381 11.9761 19.3513C11.9244 19.3577 11.879 19.3383 11.892 19.2775C11.9106 19.1721 11.941 19.0692 11.9826 18.9707C11.9882 18.953 11.9977 18.9368 12.0105 18.9233C12.0233 18.9098 12.039 18.8995 12.0564 18.893C12.142 18.8441 12.22 18.7831 12.2881 18.7118C12.3474 18.6553 12.425 18.6218 12.5069 18.6173C12.6298 18.6066 12.7472 18.5617 12.846 18.4879C12.9497 18.416 13.0471 18.3354 13.1373 18.2471C13.2034 18.1615 13.2386 18.0561 13.2372 17.948C13.2358 17.8399 13.1978 17.7355 13.1295 17.6516L13.1036 17.6063C13.079 17.5675 13.0648 17.5118 13.0441 17.4717C13.0169 17.4314 12.9996 17.3853 12.9936 17.3371C12.9936 17.2491 13.0285 17.1649 13.0337 17.0769C13.0344 17.07 13.0327 17.063 13.0289 17.0571C13.0252 17.0513 13.0196 17.0468 13.013 17.0445C12.9561 17.0231 12.8963 17.01 12.8357 17.0057C12.595 17.0336 12.352 17.0362 12.1108 17.0135C11.9317 16.9618 11.7614 16.8832 11.6059 16.7805C11.5373 16.7378 11.4959 16.6899 11.426 16.6497C11.4079 16.6394 11.4066 16.6433 11.3897 16.6575C11.218 16.7821 11.0067 16.8396 10.7956 16.8193H10.793C10.6635 16.7971 10.5362 16.7637 10.4124 16.7196C10.3179 16.6847 10.1665 16.6238 10.0759 16.7002C10.0383 16.7326 10.0474 16.7779 10.0474 16.8206C10.0593 16.9522 10.0549 17.0848 10.0344 17.2154C10.032 17.2222 10.0311 17.2294 10.0318 17.2366C10.0325 17.2437 10.0347 17.2506 10.0383 17.2568C10.0407 17.2597 10.0433 17.2623 10.0461 17.2646C10.0602 17.2755 10.0759 17.2843 10.0927 17.2905L10.1056 17.2957C10.1419 17.3086 10.1484 17.3254 10.1704 17.3707C10.1816 17.3962 10.1886 17.4233 10.1911 17.451C10.1951 17.4778 10.1937 17.505 10.1872 17.5313C10.1839 17.5482 10.18 17.5651 10.1755 17.5817C10.1593 17.6395 10.163 17.701 10.1859 17.7565C10.1967 17.7843 10.2157 17.8082 10.2403 17.8251C10.2444 17.8271 10.2488 17.8289 10.2532 17.8303C10.2574 17.8319 10.2617 17.8332 10.2662 17.8342C10.2705 17.8345 10.2748 17.8345 10.2791 17.8342H10.292C10.3011 17.832 10.3099 17.8285 10.3179 17.8238L10.3231 17.8212C10.3357 17.8104 10.3519 17.8049 10.3684 17.8057C10.3729 17.8065 10.3772 17.8078 10.3814 17.8096C10.4036 17.8144 10.4236 17.8264 10.4383 17.8437C10.4531 17.861 10.4617 17.8827 10.4629 17.9054C10.4659 18.0041 10.4455 18.1021 10.4034 18.1914C10.3994 18.2006 10.3937 18.2088 10.3866 18.2158C10.3794 18.2227 10.3709 18.2281 10.3617 18.2317C10.3524 18.2353 10.3425 18.2371 10.3325 18.2368C10.3226 18.2366 10.3128 18.2343 10.3037 18.2303L10.2804 18.2212C10.2102 18.1838 10.1485 18.1322 10.0992 18.0698C10.0626 18.0297 10.0403 17.9788 10.0357 17.9248C10.0373 17.8861 10.0244 17.8483 9.99949 17.8186C9.98721 17.809 9.97313 17.802 9.95807 17.7979C9.92263 17.7875 9.8911 17.7668 9.86746 17.7384C9.83635 17.6988 9.81422 17.653 9.8026 17.604C9.79097 17.5551 9.79014 17.5042 9.80015 17.4549C9.84029 17.1777 9.81997 16.8951 9.7406 16.6264C9.72395 16.5812 9.72487 16.5313 9.74319 16.4866L9.7639 16.431C9.76651 16.4239 9.76954 16.417 9.77296 16.4103C9.77827 16.3997 9.78592 16.3904 9.79535 16.3832C9.80477 16.3761 9.81571 16.3711 9.82733 16.3688C9.83971 16.3665 9.85227 16.3652 9.86487 16.365C10.0625 16.3643 10.2589 16.3337 10.4474 16.2743C10.4729 16.2645 10.5003 16.2601 10.5276 16.2614C10.5591 16.2636 10.5906 16.2644 10.6221 16.264C10.661 16.264 10.6998 16.229 10.6532 16.1993C10.6143 16.1644 10.578 16.1267 10.5445 16.0866C10.538 16.0751 10.5279 16.066 10.5157 16.0609C10.5035 16.0557 10.4899 16.0548 10.4771 16.0582C10.4727 16.06 10.4683 16.0622 10.4642 16.0646L10.4526 16.0711C10.438 16.0839 10.4208 16.0932 10.4022 16.0982C10.3835 16.1033 10.364 16.1041 10.345 16.1005C10.326 16.0969 10.3081 16.0889 10.2927 16.0773C10.2772 16.0658 10.2646 16.0508 10.2558 16.0336C10.2067 15.9518 10.1689 15.8639 10.1432 15.7721C10.1214 15.6596 10.073 15.554 10.0021 15.464C9.96962 15.4332 9.93074 15.4098 9.88823 15.3957C9.84571 15.3816 9.80061 15.3771 9.75614 15.3825C9.68564 15.4012 9.62526 15.4467 9.58786 15.5093L9.50631 15.6232C9.48562 15.6482 9.47179 15.6781 9.46618 15.71C9.46566 15.7169 9.46566 15.7238 9.46618 15.7307C9.46798 15.7448 9.47146 15.7587 9.47653 15.7721C9.49069 15.8063 9.49342 15.8442 9.48432 15.8801C9.47523 15.916 9.45479 15.9481 9.42605 15.9714L9.30437 16.0685C9.29308 16.0783 9.28383 16.0901 9.27717 16.1035C9.2705 16.1168 9.26655 16.1313 9.26554 16.1462C9.26187 16.1724 9.25668 16.1983 9.25 16.2239C9.24532 16.2429 9.24401 16.2626 9.24612 16.2821C9.24662 16.2873 9.24749 16.2925 9.24871 16.2976C9.25621 16.3187 9.27027 16.3369 9.28884 16.3494C9.29473 16.3543 9.30035 16.3595 9.30566 16.365C9.31185 16.3715 9.31708 16.3789 9.3212 16.387C9.32859 16.4018 9.33107 16.4185 9.32828 16.4348C9.32548 16.4511 9.31756 16.4661 9.30566 16.4776C9.29598 16.4874 9.2856 16.4965 9.2746 16.5048C9.19985 16.5631 9.11699 16.6102 9.02865 16.6446C9.01784 16.6487 9.00651 16.6513 8.99499 16.6523C8.9458 16.6562 8.93027 16.6187 8.92768 16.5747C8.9238 16.5177 8.9238 16.4595 8.9238 16.4012C8.92563 16.335 8.95192 16.2718 8.99758 16.2239C9.06053 16.14 9.09336 16.0374 9.09078 15.9326C9.08752 15.8721 9.10587 15.8125 9.14256 15.7643C9.1738 15.7301 9.19878 15.6907 9.21635 15.6478C9.22881 15.617 9.24583 15.5882 9.26683 15.5624C9.39818 15.4043 9.51966 15.2383 9.63057 15.0653C9.70047 14.954 9.83121 14.8168 9.93736 14.9708C9.96494 15.0123 9.99903 15.049 10.0383 15.0796C10.1454 15.1574 10.2574 15.2283 10.3736 15.2919C10.4953 15.3605 10.5147 15.2375 10.5354 15.1352V15.1313C10.5457 15.0894 10.5623 15.0492 10.5846 15.0122C10.6578 14.895 10.7457 14.7876 10.8461 14.6925C10.9017 14.6433 10.982 14.5941 11.0402 14.5462C11.0635 14.5255 11.07 14.5229 11.0791 14.4945C11.0907 14.466 11.1101 14.4297 11.1231 14.3935C11.136 14.3585 11.1425 14.3223 11.1542 14.2951C11.1797 14.2561 11.1989 14.2133 11.2111 14.1683V14.1644C11.2113 14.1622 11.2113 14.1601 11.2111 14.1579V14.1488L11.2072 14.1398C11.2018 14.1267 11.1922 14.1158 11.18 14.1087C11.1404 14.0846 11.0944 14.0729 11.048 14.0751H11.0441C10.9782 14.0756 10.9131 14.0892 10.8525 14.1152C10.8214 14.129 10.7964 14.1539 10.7826 14.1851C10.7692 14.2151 10.7509 14.2427 10.7283 14.2666C10.706 14.2883 10.6766 14.3011 10.6456 14.3025C10.6146 14.3039 10.5841 14.2939 10.56 14.2744C10.5289 14.2537 10.5419 14.2187 10.56 14.1929C10.5767 14.1724 10.5918 14.1508 10.6053 14.1281C10.6108 14.1183 10.613 14.107 10.6118 14.0958V14.0906L10.6092 14.0841C10.6074 14.0813 10.6052 14.0787 10.6027 14.0764C10.5946 14.0699 10.585 14.0657 10.5748 14.0641C10.5646 14.0625 10.5541 14.0636 10.5445 14.0673C10.5081 14.0773 10.4723 14.089 10.437 14.1022C10.4253 14.1086 10.4122 14.1121 10.3988 14.1124C10.3855 14.1126 10.3722 14.1096 10.3603 14.1036C10.3483 14.0976 10.338 14.0889 10.3302 14.078C10.3223 14.0672 10.3173 14.0546 10.3153 14.0414C10.3103 14.018 10.309 13.994 10.3115 13.9702C10.3123 13.9554 10.3177 13.9411 10.327 13.9295C10.3362 13.9179 10.3489 13.9095 10.3632 13.9055C10.3891 13.8977 10.428 13.8835 10.4228 13.8511C10.4213 13.8412 10.4213 13.8312 10.4228 13.8213C10.4252 13.8098 10.4305 13.7991 10.4383 13.7903C10.4497 13.7777 10.4628 13.7668 10.4771 13.7579C10.6203 13.6641 10.7586 13.563 10.8914 13.455C10.9014 13.4434 10.9152 13.4357 10.9304 13.4333C10.9456 13.4309 10.9611 13.434 10.9742 13.4421L10.9872 13.4498C11.0473 13.4811 11.1165 13.4903 11.1826 13.4757C11.1943 13.4752 11.2056 13.4712 11.215 13.4643C11.2245 13.4574 11.2316 13.4479 11.2357 13.4369C11.2359 13.4347 11.2359 13.4326 11.2357 13.4304V13.4239L11.2331 13.4162L11.2292 13.411C11.2171 13.3977 11.2014 13.3883 11.1839 13.3838L11.1088 13.3566C11.0853 13.3483 11.0627 13.3374 11.0415 13.3243C11.0285 13.3168 11.0183 13.3053 11.0125 13.2915C11.0067 13.2777 11.0055 13.2624 11.0092 13.2479C11.0389 13.1016 11.1995 13.1003 11.3211 13.112H11.3263C11.3878 13.1111 11.4488 13.1015 11.5075 13.0835C11.5852 13.0563 11.6447 12.9968 11.7185 12.9618C11.7923 12.9269 11.87 12.888 11.9464 12.8583C11.9697 12.8505 11.9891 12.8557 12.0098 12.8466C12.0273 12.8396 12.0428 12.8285 12.0551 12.8143C12.1083 12.7373 12.1699 12.6665 12.2389 12.6033C12.334 12.548 12.437 12.5078 12.5444 12.4842C12.5569 12.4797 12.57 12.4771 12.5832 12.4764H12.5819ZM12.0318 13.1974C11.9844 13.1971 11.9377 13.2087 11.8959 13.2311C11.8842 13.2375 11.8765 13.2518 11.8855 13.2621C11.9088 13.2893 11.9489 13.301 11.9761 13.3269C11.9947 13.3438 12.0101 13.364 12.0214 13.3864C12.0331 13.411 12.0525 13.4382 12.0642 13.4641C12.0862 13.5161 12.1057 13.5693 12.1224 13.6233C12.1518 13.7114 12.1735 13.8019 12.1871 13.8938C12.2001 13.9676 12.1962 14.0453 12.2001 14.1204V14.2252C12.1988 14.255 12.1988 14.2861 12.1962 14.3158C12.1926 14.358 12.1909 14.4003 12.191 14.4427V14.5462C12.1936 14.6369 12.2078 14.7016 12.248 14.7016C12.2857 14.7023 12.323 14.6939 12.3567 14.677C12.3899 14.6571 12.4174 14.6291 12.4367 14.5955C12.4559 14.562 12.4663 14.5241 12.4667 14.4854C12.501 14.238 12.4996 13.9869 12.4628 13.7398C12.4567 13.6491 12.4319 13.5607 12.3901 13.4801C12.3482 13.3995 12.2901 13.3284 12.2195 13.2712C12.1684 13.2247 12.1008 13.1985 12.0318 13.1974ZM17.1578 13.4058H23.8593C23.8372 14.4738 23.8152 15.477 23.7945 16.3352H17.154L17.1591 13.9249L17.1578 13.4058ZM17.1501 16.6989H23.7816C23.7408 17.9837 23.5028 19.2546 23.0761 20.4671C22.5678 21.8888 21.8898 23.244 21.0568 24.5032C20.1876 25.8002 19.1345 26.964 17.9306 27.9581C17.4604 28.3563 16.9644 28.723 16.4459 29.0558C15.6339 29.5501 14.7858 29.9824 13.9088 30.349C13.6188 30.4732 13.3677 30.5898 13.1373 30.6687C12.8874 30.7529 12.6738 30.8305 12.5237 30.8706V30.7218L12.5276 21.2787C12.6643 21.2749 12.8008 21.2649 12.9366 21.2489C12.9431 21.2684 12.9573 21.3227 12.9767 21.3784C13.006 21.4323 13.0464 21.4794 13.0953 21.5164C13.1442 21.5535 13.2004 21.5797 13.2602 21.5933C13.3326 21.608 13.4076 21.6029 13.4773 21.5785C13.547 21.5541 13.6089 21.5114 13.6563 21.4548C13.7236 21.5146 13.8063 21.5545 13.8951 21.5698C13.9838 21.5851 14.0751 21.5753 14.1586 21.5415C14.2235 21.5244 14.2809 21.4862 14.3218 21.4331C14.3628 21.38 14.3851 21.3148 14.3851 21.2477C14.3934 21.1557 14.3787 21.0632 14.3424 20.9784L14.2958 20.893C14.6351 20.7514 14.958 20.5735 15.2589 20.3622L15.2848 20.3545C15.7676 20.2328 17.708 19.5377 18.8976 19.5221C19.6315 19.5055 20.3571 19.6795 21.0037 20.027C21.3345 20.2203 21.6325 20.465 21.8865 20.7519C21.8943 20.7635 21.9033 20.7881 21.9344 20.7933C21.9437 20.7935 21.9529 20.7909 21.9608 20.7858C21.9686 20.7808 21.9748 20.7734 21.9784 20.7648C22.0637 20.5531 22.0987 20.3244 22.0807 20.0969C22.0548 19.7318 21.6923 19.4678 21.5849 19.359C21.581 19.3552 21.5719 19.3319 21.6108 19.306C21.6523 19.2648 21.6978 19.228 21.7467 19.1959C21.9546 19.0308 22.209 18.9348 22.4742 18.9215C22.513 18.9254 22.5001 18.8697 22.4897 18.8231C22.4146 18.4995 21.9525 18.2898 21.4671 18.3649C21.3057 18.398 21.1525 18.4627 21.0163 18.5554C20.8801 18.648 20.7636 18.7667 20.6736 18.9047C20.6645 18.9189 20.6192 18.9396 20.6011 18.9215C20.4451 18.8649 20.2855 18.8187 20.1234 18.783C20.0652 18.7701 20.0963 18.726 20.0989 18.7183C20.195 18.5447 20.3296 18.3955 20.4924 18.282C20.6787 18.1347 20.8982 18.0351 21.1318 17.9921C21.1603 17.9921 21.1603 17.9533 21.1525 17.9403C21.1066 17.8426 21.039 17.7566 20.9549 17.6889C20.8708 17.6212 20.7724 17.5735 20.6671 17.5494C20.4968 17.4946 20.3157 17.4825 20.1397 17.5141C19.9636 17.5457 19.798 17.6201 19.6574 17.7306C19.3839 17.958 19.1836 18.2611 19.0814 18.6018C19.0633 18.6277 19.0581 18.6484 19.0348 18.6432C18.9067 18.6173 18.5882 18.6341 18.5597 18.6147C18.5403 18.6057 18.5442 18.5759 18.5481 18.5565C18.6022 18.3715 18.7009 18.2026 18.8355 18.0646C18.9568 17.9014 19.1194 17.7736 19.3066 17.6944C19.3179 17.6892 19.3275 17.6812 19.3347 17.6712C19.3419 17.6612 19.3464 17.6495 19.3477 17.6372C19.349 17.6249 19.3471 17.6125 19.3422 17.6012C19.3372 17.5899 19.3295 17.5801 19.3196 17.5727C19.0578 17.4371 18.757 17.3969 18.4688 17.459C18.1806 17.5211 17.923 17.6817 17.7404 17.9131C17.5578 18.1883 17.4246 18.4931 17.3468 18.8141C17.3442 18.8257 17.3248 18.8607 17.3002 18.8607L16.6427 19.0056L16.5352 19.0302L16.5067 19.06C16.9071 18.4179 17.1292 17.6806 17.1501 16.9242V16.6989ZM1.03408 16.809H7.75231V16.9255C7.7647 17.9336 8.15078 18.9014 8.83578 19.6412H1.47549C1.22072 18.717 1.07349 17.7668 1.03408 16.809ZM1.57128 19.9713H9.16068C9.20774 20.0159 9.25608 20.059 9.30566 20.1008C10.1002 20.7679 11.0811 21.1738 12.1146 21.2632V22.8295H2.76865C2.36683 22.0672 2.02074 21.2768 1.73309 20.4645C1.676 20.3016 1.62206 20.1376 1.57128 19.9726V19.9713ZM15.2718 20.3467L15.2589 20.3622H15.2563L15.2537 20.3597C15.2602 20.3554 15.2667 20.351 15.2731 20.3467H15.2718ZM17.5216 20.5862C17.2878 20.5865 17.0593 20.6564 16.8653 20.7868C16.6452 20.9068 16.4679 21.0923 16.3579 21.3176C16.2337 21.6389 16.1586 21.9771 16.1352 22.3208C16.1307 22.3314 16.124 22.3409 16.1155 22.3487C16.107 22.3565 16.097 22.3624 16.086 22.3661C15.9394 22.3949 15.7946 22.4325 15.6524 22.4787C15.6453 22.478 15.6387 22.4752 15.6333 22.4706C15.628 22.4659 15.6242 22.4597 15.6226 22.4528C15.5769 22.1261 15.6455 21.7936 15.8168 21.5117C15.8879 21.381 15.9837 21.2654 16.099 21.1713C16.1074 21.1659 16.1139 21.1579 16.1176 21.1486C16.1213 21.1393 16.122 21.1291 16.1195 21.1194C16.1171 21.1097 16.1117 21.1009 16.1041 21.0945C16.0964 21.088 16.087 21.0841 16.077 21.0833C15.7887 21.0343 15.4924 21.0864 15.2382 21.2308C15.0795 21.3184 14.9437 21.4423 14.8421 21.5923C14.7404 21.7424 14.6756 21.9144 14.6531 22.0942C14.6226 22.3517 14.641 22.6125 14.7074 22.8631C14.7074 22.8709 14.7152 22.8981 14.6867 22.9033C14.5883 22.9512 14.3217 23.091 14.2272 23.1363C14.2207 23.1389 14.2026 23.1427 14.1987 23.1285C14.1744 23.0321 14.1313 22.9416 14.0717 22.862C14.0122 22.7825 13.9374 22.7155 13.8518 22.6651C13.7594 22.6272 13.6597 22.6101 13.56 22.615C13.4602 22.6199 13.3627 22.6468 13.2745 22.6936C13.1552 22.7612 13.0581 22.8619 12.9949 22.9835C12.9506 23.0857 12.9427 23.1999 12.9727 23.3071C13.0026 23.4144 13.0685 23.5081 13.1593 23.5725C13.167 23.5803 13.1813 23.5984 13.1593 23.6049C13.0428 23.6683 13.0402 23.6825 12.9522 23.8133C12.9078 23.9069 12.8905 24.0112 12.9024 24.1142C12.9143 24.2171 12.9549 24.3147 13.0195 24.3958C13.068 24.4675 13.1314 24.528 13.2053 24.573C13.2793 24.618 13.3622 24.6465 13.4482 24.6566C13.5342 24.6667 13.6214 24.6581 13.7038 24.6314C13.7862 24.6047 13.8618 24.5605 13.9256 24.5019C13.9308 24.498 13.9489 24.5084 13.9579 24.5278C14.0066 24.6042 14.0694 24.6705 14.1431 24.7233C14.2329 24.774 14.3344 24.8006 14.4375 24.8006C14.5407 24.8006 14.6422 24.774 14.732 24.7233C14.8261 24.6714 14.9023 24.5924 14.9508 24.4966C14.9992 24.4008 15.0178 24.2926 15.0039 24.1861C15.002 24.0586 14.9504 23.9369 14.8602 23.8469C14.8434 23.8262 14.8602 23.8159 14.9042 23.7874C15.6865 23.3392 16.548 23.0465 17.4413 22.9253C17.9038 22.854 18.375 22.8637 18.8342 22.9537C19.1336 23.0222 19.4126 23.1606 19.6484 23.3576C19.8406 23.513 20.0167 23.6873 20.1739 23.878C20.2267 23.8867 20.2808 23.8751 20.3254 23.8456C20.3733 23.741 20.3996 23.6279 20.4027 23.5129C20.4058 23.3979 20.3857 23.2834 20.3435 23.1764C20.2364 22.8881 20.0666 22.6273 19.8464 22.4127C19.8425 22.4101 19.8426 22.3958 19.8426 22.3868C19.8374 22.3479 19.862 22.3285 19.9099 22.2845C20.1138 22.0939 20.3649 21.9611 20.6373 21.9001C20.6723 21.8975 20.6865 21.8716 20.6632 21.8314C20.5648 21.6518 20.4047 21.5138 20.2124 21.4429C20.0202 21.372 19.8089 21.373 19.6173 21.4457C19.3651 21.552 19.1562 21.7423 19.0283 21.9842C19.0206 21.9984 18.9999 22.0489 18.9804 22.0334C18.8639 22.023 18.6672 21.992 18.552 21.9816C18.4989 21.979 18.5196 21.9311 18.5209 21.9234C18.5688 21.768 18.6551 21.6273 18.772 21.5143C18.9287 21.3339 19.1255 21.1929 19.3468 21.1027C19.3512 21.1022 19.3554 21.1006 19.3591 21.098C19.3628 21.0955 19.3658 21.0921 19.3678 21.0881C19.3699 21.0842 19.3709 21.0798 19.3709 21.0753C19.3708 21.0708 19.3696 21.0665 19.3675 21.0625C19.2941 20.9731 19.2024 20.9003 19.0986 20.8492C18.9948 20.7981 18.8812 20.7698 18.7656 20.7661C18.6183 20.7584 18.471 20.7818 18.3333 20.8349C18.1957 20.888 18.0708 20.9695 17.9669 21.0742C17.7192 21.3362 17.5657 21.6732 17.5306 22.0321C17.519 22.0619 17.5048 22.0774 17.4828 22.0774C17.3637 22.0966 17.2435 22.1074 17.1229 22.1098C17.1035 22.1046 17.1048 22.0839 17.1048 22.0632C17.1069 21.8802 17.1517 21.7003 17.2355 21.5376C17.3997 21.2263 17.6459 20.9657 17.9475 20.7842C17.9941 20.7519 17.9967 20.6859 17.9811 20.6781C17.8356 20.617 17.6794 20.5858 17.5216 20.5862ZM2.96541 23.1945H12.1159V26.0294H4.91486C4.49414 25.546 4.10582 25.0353 3.75244 24.5006C3.47412 24.0744 3.21118 23.6383 2.96412 23.1932L2.96541 23.1945ZM16.0084 24.7168C15.8844 24.7119 15.7617 24.7429 15.655 24.8061C15.364 24.9591 15.1436 25.219 15.0401 25.531C14.9795 25.7744 14.9849 26.0295 15.0556 26.2701C15.0595 26.2792 15.0712 26.3012 15.0531 26.309C14.9521 26.3478 14.877 26.3931 14.7773 26.4332C14.7722 26.4332 14.7463 26.4397 14.7411 26.4268C14.6571 26.2763 14.6229 26.1031 14.6434 25.9319C14.6639 25.7608 14.7379 25.6005 14.855 25.4741C14.877 25.4546 14.89 25.4287 14.8446 25.4132C14.7183 25.3938 14.5891 25.4065 14.469 25.4502C14.3489 25.4938 14.2417 25.567 14.1573 25.663C14.0603 25.7799 13.9953 25.92 13.9688 26.0695C13.9422 26.2191 13.955 26.373 14.0058 26.5161C14.0312 26.6346 14.0744 26.7485 14.134 26.8539C14.1379 26.8604 14.1728 26.8811 14.1521 26.8902L13.9579 27.0391C13.9541 27.0429 13.9398 27.0494 13.9334 27.0391C13.8943 26.9654 13.841 26.9002 13.7766 26.8473C13.7121 26.7944 13.6378 26.7549 13.558 26.731C13.4855 26.7138 13.4099 26.7153 13.3381 26.7352C13.2664 26.7551 13.2009 26.7928 13.1476 26.8449C13.0901 26.9016 13.0482 26.9723 13.0262 27.0501C13.0041 27.1278 13.0026 27.21 13.0218 27.2885C13.0409 27.367 13.0801 27.4392 13.1355 27.498C13.191 27.5569 13.2607 27.6003 13.3379 27.6241C13.347 27.628 13.3599 27.6397 13.3444 27.65C13.2411 27.7199 13.1566 27.8142 13.0984 27.9245C13.0634 28.0132 13.0551 28.1103 13.0747 28.2037C13.0942 28.2971 13.1407 28.3828 13.2085 28.45C13.2593 28.4947 13.3191 28.528 13.3838 28.5479C13.4485 28.5677 13.5167 28.5736 13.5838 28.5652C13.6842 28.5323 13.7769 28.4795 13.8563 28.4099C13.9357 28.3402 14.0002 28.2553 14.046 28.1601C14.0486 28.1562 14.0732 28.138 14.0861 28.1523C14.1695 28.2728 14.2892 28.3635 14.4278 28.4112C14.4987 28.4358 14.5748 28.441 14.6484 28.4262C14.7219 28.4114 14.7901 28.3772 14.8459 28.327C14.922 28.2674 14.977 28.1849 15.0028 28.0917C15.0287 27.9986 15.0241 27.8996 14.9896 27.8093C14.9271 27.6962 14.8377 27.6002 14.7294 27.5297C14.7126 27.5167 14.7256 27.4843 14.7592 27.4585C15.2836 27.0368 15.9093 26.7601 16.574 26.6559C17.0278 26.5957 17.4893 26.6704 17.9009 26.8708C18.0617 26.9651 18.2085 27.0814 18.3371 27.2164C18.3539 27.2255 18.4018 27.2423 18.4186 27.2267C18.5161 27.1371 18.5753 27.0133 18.5837 26.8812C18.5922 26.749 18.5493 26.6187 18.464 26.5174C18.3905 26.4288 18.2998 26.3561 18.1973 26.3038C18.193 26.298 18.19 26.2914 18.1882 26.2844C18.2684 26.0819 18.4033 25.9058 18.5779 25.7757C18.6974 25.699 18.8255 25.6369 18.9597 25.5906C18.9882 25.5828 18.983 25.5647 18.9688 25.5297C18.8031 25.1504 18.1468 25.1362 17.8374 25.3355C17.6485 25.4672 17.4947 25.6432 17.3896 25.8482C17.3831 25.8611 17.374 25.8999 17.3572 25.8883L17.0815 25.8054C17.0763 25.8054 17.0763 25.7744 17.0789 25.7692C17.1703 25.5916 17.2975 25.4349 17.4526 25.309C17.6077 25.1831 17.7872 25.0907 17.9798 25.0378C17.9992 25.0301 17.9928 25.0119 17.9889 25.0016C17.8465 24.6547 17.1333 24.6844 16.785 24.9058C16.4614 25.1204 16.2329 25.4514 16.1469 25.83C16.143 25.8559 16.1546 25.8779 16.1378 25.8818C16.0411 25.915 15.9414 25.9388 15.8401 25.953C15.8325 25.9524 15.8254 25.949 15.8202 25.9435C15.815 25.938 15.8119 25.9308 15.8116 25.9232C15.7861 25.7492 15.8164 25.5715 15.8983 25.4158C16.0145 25.2222 16.1555 25.0447 16.3177 24.8877C16.3231 24.8822 16.3273 24.8757 16.33 24.8685C16.3327 24.8613 16.334 24.8537 16.3336 24.846C16.3332 24.8384 16.3313 24.8309 16.3279 24.824C16.3245 24.8171 16.3197 24.8111 16.3139 24.8061C16.2212 24.7508 16.1162 24.7209 16.0084 24.7168ZM12.1172 26.3944V30.8176C11.9904 30.7762 11.8402 30.7218 11.6745 30.6661C11.4441 30.5885 11.1917 30.4707 10.9017 30.3464C10.0246 29.9794 9.17651 29.5467 8.36459 29.0519C7.8461 28.7195 7.35011 28.3533 6.87985 27.9555C6.29881 27.4729 5.75128 26.9514 5.24107 26.3944H12.1146H12.1172Z" fill="#3459A3"/>
</svg>
