<svg width="32" height="12" viewBox="0 0 32 12" fill="none" xmlns="http://www.w3.org/2000/svg">
<g clip-path="url(#clip0_347_38666)">
<path d="M5.63766 1.07153C4.39094 1.11311 3.21048 1.64293 2.35075 2.54676C1.49102 3.45059 1.02088 4.65606 1.04168 5.9033C1.06247 7.15055 1.57253 8.33967 2.46191 9.21435C3.35129 10.089 4.54875 10.5792 5.79617 10.5792C7.04358 10.5792 8.24105 10.089 9.13042 9.21435C10.0198 8.33967 10.5299 7.15055 10.5507 5.9033C10.5715 4.65606 10.1013 3.45059 9.24158 2.54676C8.38185 1.64293 7.2014 1.11311 5.95467 1.07153H5.63766ZM12.2949 1.07153C11.0482 1.11311 9.86769 1.64293 9.00796 2.54676C8.14824 3.45059 7.67809 4.65606 7.69889 5.9033C7.71968 7.15055 8.22974 8.33967 9.11912 9.21435C10.0085 10.089 11.206 10.5792 12.4534 10.5792C13.7008 10.5792 14.8983 10.089 15.7876 9.21435C16.677 8.33967 17.1871 7.15055 17.2079 5.9033C17.2287 4.65606 16.7585 3.45059 15.8988 2.54676C15.0391 1.64293 13.8586 1.11311 12.6119 1.07153H12.2949ZM18.9521 1.07153C17.7054 1.11311 16.5249 1.64293 15.6652 2.54676C14.8054 3.45059 14.3353 4.65606 14.3561 5.9033C14.3769 7.15055 14.887 8.33967 15.7763 9.21435C16.6657 10.089 17.8632 10.5792 19.1106 10.5792C20.358 10.5792 21.5555 10.089 22.4448 9.21435C23.3342 8.33967 23.8443 7.15055 23.8651 5.9033C23.8859 4.65606 23.4157 3.45059 22.556 2.54676C21.6963 1.64293 20.5158 1.11311 19.2691 1.07153H18.9521ZM25.6093 1.07153C24.3626 1.11311 23.1821 1.64293 22.3224 2.54676C21.4627 3.45059 20.9925 4.65606 21.0133 5.9033C21.0341 7.15055 21.5442 8.33967 22.4335 9.21435C23.3229 10.089 24.5204 10.5792 25.7678 10.5792C27.0152 10.5792 28.2127 10.089 29.1021 9.21435C29.9914 8.33967 30.5015 7.15055 30.5223 5.9033C30.5431 4.65606 30.0729 3.45059 29.2132 2.54676C28.3535 1.64293 27.173 1.11311 25.9263 1.07153H25.6093Z" stroke="#3459A3" stroke-width="0.881756"/>
</g>
<defs>
<clipPath id="clip0_347_38666">
<rect width="31.067" height="10.7783" fill="white" transform="translate(0.248047 0.4375)"/>
</clipPath>
</defs>
</svg>
