<svg width="32" height="32" viewBox="0 0 32 32" fill="none" xmlns="http://www.w3.org/2000/svg">
<g clip-path="url(#clip0_347_38661)">
<path d="M15.7815 0C7.20317 0 0.248047 7.08635 0.248047 15.8266C0.248047 24.5668 7.20317 31.6532 15.7815 31.6532C24.3599 31.6532 31.315 24.5668 31.315 15.8266C31.315 7.08635 24.3599 0 15.7815 0ZM15.7815 1.02873C23.802 1.02873 30.3041 7.65347 30.3041 15.8266C30.3041 23.9984 23.8033 30.6231 15.7815 30.6231C7.75978 30.6231 1.25902 23.9984 1.25902 15.8266C1.25902 7.65479 7.76108 1.02873 15.7815 1.02873ZM14.9039 1.85962C14.4767 1.87809 14.0496 1.91502 13.6198 1.9625L13.4813 5.84528C13.7861 5.79273 14.0926 5.75138 14.4004 5.72131L14.491 3.09937L14.4741 2.91868L14.5298 3.09014L15.3893 5.05395H16.1738L17.0333 3.09146L17.0851 2.91868L17.0721 3.09937L17.1627 5.72131C17.463 5.75032 17.775 5.79253 18.0818 5.84528L17.9407 1.9625C17.5139 1.9135 17.0856 1.87919 16.6566 1.85962L15.8113 4.00281L15.7815 4.16107L15.7518 4.00281L14.9039 1.85962ZM23.5716 4.26526L21.5742 7.46751C21.8267 7.66534 22.1593 7.95681 22.3729 8.15596L24.2538 7.16153L24.3729 7.07052L24.2835 7.1945L23.3101 9.11083C23.5211 9.34164 23.8253 9.71488 23.9962 9.94173L27.1417 7.90538C26.9488 7.65112 26.7503 7.40135 26.5462 7.15625L24.5541 8.4936L24.4182 8.61493L24.5191 8.46326L25.3994 6.67486L24.778 6.0418L23.0227 6.93864L22.8739 7.04151L22.9917 6.90171L24.3094 4.87195C24.0764 4.67148 23.8551 4.48815 23.5716 4.26526ZM7.36756 4.99197C6.90156 5.04076 6.5417 5.36521 5.56438 6.47571C5.22549 6.86702 4.8987 7.26903 4.58448 7.68117L7.26919 10.2754C8.15848 9.27306 8.51963 8.90113 9.22123 8.14805C9.717 7.6139 9.9979 7.00062 9.50083 6.41108C9.23158 6.09191 8.77852 6.02201 8.40054 6.18028L8.3643 6.19347L8.37724 6.15918C8.42392 5.98418 8.41899 5.79904 8.36305 5.62688C8.30711 5.45472 8.20264 5.30316 8.06269 5.19112C7.96541 5.11297 7.85388 5.05525 7.73457 5.02129C7.61525 4.98733 7.49051 4.9765 7.36756 4.99197ZM7.37533 5.80308C7.55138 5.75428 7.7339 5.88221 7.77402 6.06685C7.81545 6.2515 7.70153 6.42559 7.57468 6.57067C7.2899 6.90039 6.24009 8.0188 6.24009 8.0188L5.71972 7.51367C6.25951 6.84104 6.83425 6.22908 7.09443 5.9864C7.1725 5.90349 7.26877 5.84066 7.37533 5.80308ZM15.7815 6.4401C13.5012 6.43907 11.3016 7.30009 9.6086 8.85648C7.91556 10.4129 6.84949 12.5539 6.61678 14.8651V14.8677C6.47051 16.3341 6.66496 17.8149 7.18441 19.1905C7.70386 20.5661 8.53374 21.7978 9.60693 22.7861C10.6801 23.7744 11.9665 24.4915 13.3621 24.8794C14.7577 25.2673 16.2233 25.3152 17.6404 25.0192C19.7176 24.5841 21.5837 23.4318 22.9233 21.7569C24.2629 20.082 24.994 17.9872 24.9929 15.8266C24.9905 13.3383 24.0192 10.9528 22.2922 9.19343C20.5652 7.43411 18.2237 6.44483 15.7815 6.44274V6.4401ZM8.61413 6.75927C8.67497 6.75927 8.73839 6.77641 8.79535 6.81598C8.90926 6.89379 8.96104 7.027 8.93256 7.15889C8.89891 7.31584 8.77076 7.46355 8.6672 7.57829L7.31449 9.05544L6.77082 8.52789C6.77082 8.52789 7.78956 7.43058 8.12353 7.07844C8.25556 6.93863 8.341 6.85423 8.43161 6.80807C8.48774 6.77837 8.55092 6.76171 8.61413 6.75927ZM15.7815 7.67325C16.8328 7.67204 17.8739 7.8821 18.8453 8.29141C19.8167 8.70072 20.6994 9.30125 21.4427 10.0586C22.186 10.8159 22.7754 11.7152 23.1772 12.705C23.5789 13.6948 23.7851 14.7555 23.7839 15.8266H15.7815V23.9799C14.7303 23.9811 13.6892 23.7711 12.7178 23.3617C11.7463 22.9524 10.8637 22.3519 10.1204 21.5946C9.37705 20.8372 8.78765 19.9379 8.38591 18.9482C7.98418 17.9584 7.77801 16.8976 7.7792 15.8266H15.7815V7.67325Z" fill="#3459A3"/>
</g>
<defs>
<clipPath id="clip0_347_38661">
<rect width="31.067" height="31.6532" fill="white" transform="translate(0.248047)"/>
</clipPath>
</defs>
</svg>
