<svg width="32" height="32" viewBox="0 0 32 32" fill="none" xmlns="http://www.w3.org/2000/svg">
<path fill-rule="evenodd" clip-rule="evenodd" d="M22.3829 2.74327C27.0814 5.21426 30.291 10.1407 30.291 15.8194C30.291 21.498 27.0814 26.44 22.3829 28.8958V27.2074C24.1797 26.1324 25.6997 24.6284 26.8056 22.8483L22.3829 21.053V18.321L27.2351 22.112C28.2487 20.2394 28.8168 18.1059 28.8168 15.819C28.8168 10.9997 26.2367 6.76411 22.3829 4.43098V2.74327ZM15.5497 1.07031C18.0067 1.07031 20.3251 1.66913 22.3829 2.74327V4.43098C20.494 3.29471 18.2828 2.62056 15.9489 2.54366L17.6378 14.6225L22.3829 18.321V21.053L15.5186 18.2752L8.70059 21.0685V18.3517L13.4764 14.6221L15.1501 2.54328C12.7851 2.62017 10.5895 3.29549 8.70059 4.43098V2.74327C10.7432 1.66913 13.0772 1.07031 15.5497 1.07031ZM22.3829 28.8958C20.3251 29.97 18.0063 30.5836 15.5497 30.5836C13.0775 30.5836 10.7436 29.97 8.70098 28.911V27.2074C10.6974 28.4194 13.0465 29.1102 15.5497 29.1102C18.0374 29.1102 20.3717 28.4194 22.3829 27.2074V28.8958ZM8.70098 28.911C3.98656 26.44 0.777344 21.498 0.777344 15.8194C0.777344 10.1407 3.98618 5.21426 8.70059 2.74327V4.43098C4.83081 6.76373 2.25147 10.985 2.25147 15.8194C2.25147 18.1059 2.83514 20.2705 3.8487 22.1427L8.70059 18.3517V21.0685L4.29374 22.8789C5.39933 24.6447 6.90414 26.1328 8.70098 27.2074V28.911Z" fill="#3459A3"/>
</svg>
