<svg width="32" height="17" viewBox="0 0 32 17" fill="none" xmlns="http://www.w3.org/2000/svg">
<path d="M22.3985 11.559L15.7815 2.66417L9.16462 11.559C6.93005 11.3421 3.09007 9.88855 3.09007 7.30686C3.09007 4.05264 8.73072 1.01536 15.8032 1.01536C23.2446 1.01536 28.5164 4.05264 28.5164 7.30686C28.5164 9.91024 24.6547 11.3638 22.4418 11.5374M15.7815 0.060791C6.62633 0.060791 0.248047 3.64044 0.248047 8.26143C0.248047 10.4309 1.63652 12.8607 4.58701 14.336C7.34225 15.7028 11.2039 16.18 11.7463 16.2451L15.7815 4.46484L19.8168 16.2451C22.2849 15.9686 24.698 15.3252 26.9761 14.336C29.9266 12.8607 31.315 10.4309 31.315 8.26143C31.2933 3.61874 24.9368 0.060791 15.7815 0.060791Z" fill="#3459A3"/>
</svg>
