<svg width="32" height="24" viewBox="0 0 32 24" fill="none" xmlns="http://www.w3.org/2000/svg">
<path fill-rule="evenodd" clip-rule="evenodd" d="M16.1475 1.97503C16.6366 1.98857 16.5847 2.33229 16.5037 2.45078C15.0603 4.69634 11.6495 8.65031 9.16602 12.9884C8.75485 13.6913 8.44865 14.2085 8.44865 14.9798C8.44865 16.0256 9.10151 17.2621 10.4131 17.7927C11.2758 18.1383 11.819 18.1489 12.7501 18.1624C19.6632 18.3761 22.4347 18.1894 28.6207 17.9794C28.978 17.9784 29.3102 17.7377 29.4296 17.5923C30.6256 16.3453 31.315 14.1035 31.315 12.1256C31.315 7.72007 28.1421 3.75173 23.1925 1.84316L22.3981 2.86195C26.7362 4.65496 28.978 8.2362 28.978 12.0717C28.978 12.9345 28.8316 13.7703 28.5667 14.5686C28.3704 15.1253 28.1286 15.4449 27.4257 15.4555C22.3845 15.5633 19.5303 15.6423 14.4758 15.5094C13.8238 15.496 13.613 15.2581 13.507 14.7419C13.4261 14.4357 13.4936 14.1815 13.7045 13.7973C16.3853 9.04802 21.0557 3.61978 21.9724 2.33229C22.1467 2.09445 22.0649 1.61491 21.4668 1.45605C19.7171 0.938917 17.7537 0.729004 15.7632 0.729004C6.75092 0.765587 0.394381 5.83455 0.248047 12.1256C0.609173 19.6772 7.17554 23.5771 15.7632 23.5771C21.0182 23.5771 25.832 21.7195 28.6486 18.7739L26.0467 18.8788C23.6441 21.0156 19.7952 22.1577 15.8143 22.1577C8.5584 22.1577 2.65062 18.5495 2.65062 12.0717C2.65062 6.50003 8.55739 1.96157 15.8143 1.96157L16.1475 1.97503Z" fill="#3459A3"/>
</svg>
