<svg width="32" height="21" viewBox="0 0 32 21" fill="none" xmlns="http://www.w3.org/2000/svg">
<path d="M15.7815 0.0864258C7.28257 0.0864258 0.391602 4.5932 0.391602 10.151C0.391602 15.7109 7.28257 20.2197 15.7815 20.2197C24.2804 20.2197 31.1714 15.7129 31.1714 10.151C31.1714 4.58911 24.2804 0.0864258 15.7815 0.0864258ZM15.7815 15.899C14.5174 15.899 13.4858 13.3818 13.4211 10.2144C14.1816 10.2819 14.9725 10.3187 15.7815 10.3187C16.5905 10.3187 17.3814 10.2819 18.1419 10.2144C18.0771 13.3798 17.0456 15.899 15.7815 15.899ZM13.5769 7.69928C13.9207 5.4602 14.7783 3.87138 15.7815 3.87138C16.7847 3.87138 17.6423 5.4602 17.9861 7.69928C17.2802 7.76267 16.544 7.79743 15.7815 7.79743C15.019 7.79743 14.2828 7.76267 13.5769 7.69928ZM15.7815 1.54233C14.1311 1.54233 12.7233 4.0411 12.2035 7.52956C9.07458 7.03676 6.89018 5.91211 6.89018 4.60547C6.89018 2.84284 10.8706 1.41351 15.7815 1.41351C20.6923 1.41351 24.6728 2.84284 24.6728 4.60547C24.6728 5.91211 22.4884 7.03676 19.3595 7.52956C18.8396 4.0411 17.4319 1.54233 15.7815 1.54233ZM2.59825 9.77477C2.59825 8.06939 3.2475 6.4683 4.37813 5.09418C4.36599 5.19029 4.3579 5.28844 4.3579 5.38659C4.3579 7.53569 7.5455 9.36785 11.9932 10.0426C11.9891 10.198 11.9891 10.3555 11.9891 10.5129C11.9891 14.5187 13.0995 17.9111 14.6347 19.0623C7.88934 18.6513 2.59825 14.6496 2.59825 9.77477ZM16.9283 19.0623C18.4634 17.9111 19.5738 14.5187 19.5738 10.5129C19.5738 10.3534 19.5718 10.198 19.5698 10.0426C24.0155 9.36785 27.2051 7.53774 27.2051 5.38659C27.2051 5.28844 27.197 5.19029 27.1849 5.09418C28.3155 6.47239 28.9647 8.06939 28.9647 9.77477C28.9647 14.6496 23.6736 18.6513 16.9283 19.0623Z" fill="#3459A3"/>
</svg>
