<svg width="32" height="18" viewBox="0 0 32 18" fill="none" xmlns="http://www.w3.org/2000/svg">
<path d="M18.5928 9.29582L17.2385 11.9553H17.2104L17.1419 9.29582H16.0091L15.9649 9.39151L16.0621 9.45078C16.1558 9.51684 16.182 9.58387 16.1942 9.76845L16.3477 12.9958H17.6097L19.6464 9.29582H18.5928ZM14.5616 11.2111C14.4348 11.575 14.3352 11.8091 14.1881 11.9636C14.0724 12.085 13.9199 12.1719 13.5687 12.1719C13.2933 12.1719 13.1398 12.0592 13.1398 11.846C13.1379 11.7085 13.1753 11.4997 13.3224 11.0931C13.4497 10.7297 13.5493 10.4956 13.697 10.3412C13.8111 10.2197 13.9641 10.1323 14.3158 10.1323C14.5912 10.1323 14.7442 10.245 14.7437 10.4572C14.7467 10.5967 14.7093 10.8055 14.5616 11.2111ZM14.5028 9.25016H14.3853C13.6882 9.25016 13.2899 9.43815 12.963 9.78546C12.5564 10.2153 12.1746 11.3777 12.1819 11.9927C12.1897 12.6198 12.5953 13.0545 13.4478 13.0545H13.5726C14.2716 13.0545 14.6699 12.8666 14.9968 12.5192C15.4029 12.0884 15.7769 10.9265 15.7696 10.312C15.7614 9.68539 15.3558 9.25016 14.5028 9.25016ZM11.0802 10.6389C11.0166 10.7968 10.9467 10.8347 10.8548 10.8721C10.7932 10.8964 10.6625 10.9051 10.5367 10.9051H10.0495L10.3147 10.1405H10.9034C11.0797 10.1405 11.1516 10.2323 11.1541 10.3368C11.155 10.4033 11.1244 10.5252 11.0802 10.6389ZM10.9928 9.29582H9.39518L9.36312 9.39151L9.42772 9.45515C9.49572 9.52218 9.4933 9.60184 9.43355 9.77283L8.3173 12.9958H9.33737L9.77357 11.7163L10.1189 11.7168L10.5027 12.9958H11.5276L11.0457 11.6867C11.3255 11.6415 11.4659 11.5614 11.6063 11.4365C11.7987 11.2607 11.9318 11.0139 12.042 10.6506C12.2033 10.1235 12.1056 9.82237 12.0022 9.6679C11.8599 9.45515 11.5602 9.29582 10.9928 9.29582ZM21.6948 11.5118L21.9775 10.738H20.6772L20.8787 10.1473H22.2874L22.5968 9.29339H19.9374L19.9004 9.4022L19.9641 9.46486C20.0326 9.53141 20.0297 9.61059 19.9704 9.78254L18.8629 12.9943H21.348L21.6482 12.1345H20.1977L20.4115 11.5118H21.6948ZM24.6787 10.6389C24.6151 10.7968 24.5442 10.8347 24.4538 10.8721C24.3907 10.8964 24.262 10.9051 24.1362 10.9051H23.6495L23.9122 10.1405H24.5019C24.6773 10.1405 24.7502 10.2323 24.7516 10.3368C24.7536 10.4033 24.722 10.5252 24.6787 10.6389ZM24.5899 9.29582H22.9927L22.9616 9.39151L23.0257 9.45515C23.0942 9.52218 23.0908 9.60184 23.0321 9.77283L21.9148 12.9958H22.9364L23.3721 11.7168H23.717L24.1012 12.9958H25.1252L24.6443 11.6867C24.9236 11.6415 25.0639 11.5614 25.2038 11.4365C25.3967 11.2607 25.5303 11.0139 25.6405 10.6506C25.8018 10.1235 25.7042 9.82237 25.6012 9.6679C25.4589 9.45515 25.1587 9.29582 24.5899 9.29582ZM26.6844 14.2611C23.8821 15.7092 20.1443 16.5068 16.1578 16.5068C12.1717 16.5068 8.43437 15.7092 5.6316 14.2611C2.93618 12.868 1.45077 11.0537 1.45077 9.1535C1.45077 7.25179 2.93618 5.43753 5.6316 4.04537C8.43437 2.59784 12.1717 1.79927 16.1578 1.79927C20.1443 1.79927 23.8821 2.59784 26.6844 4.04537C29.3803 5.43753 30.8643 7.25179 30.8643 9.1535C30.8643 11.0537 29.3803 12.868 26.6844 14.2611ZM27.0638 3.31092C24.1454 1.80316 20.2725 0.973015 16.1578 0.973015C12.043 0.973015 8.16963 1.80316 5.25223 3.31092C3.52394 4.20421 0.624023 6.15109 0.624023 9.1535C0.624023 12.1544 3.52394 14.1018 5.25223 14.9951C8.16915 16.5029 12.042 17.333 16.1578 17.333C20.273 17.333 24.1459 16.5029 27.0638 14.9951C28.7921 14.1018 31.691 12.1549 31.691 9.1535C31.691 6.1506 28.7921 4.20421 27.0638 3.31092ZM26.2919 13.5019C23.2769 15.0592 19.5264 15.6513 16.1578 15.6513C12.7886 15.6513 9.03912 15.0592 6.02311 13.5019C4.42743 12.6766 2.30617 11.1562 2.30617 9.1535C2.30617 7.14882 4.42694 5.62988 6.02311 4.80508C9.03912 3.24777 12.7886 2.65565 16.1578 2.65565C19.5264 2.65565 23.2769 3.2468 26.2919 4.80508C27.8891 5.62988 30.0093 7.14882 30.0093 9.1535C30.0093 11.1572 27.8886 12.6766 26.2919 13.5019ZM26.4483 4.50149C23.3871 2.91844 19.5755 2.31271 16.1578 2.31271C12.7395 2.31271 8.92886 2.91892 5.86622 4.50149C4.14667 5.38944 1.9642 6.9924 1.9642 9.1535C1.9642 11.3126 4.14667 12.9166 5.86622 13.8055C8.92886 15.3871 12.7405 15.9933 16.1578 15.9933C19.5755 15.9933 23.3871 15.3881 26.4483 13.8055C28.1688 12.9166 30.3513 11.3126 30.3513 9.1535C30.3513 6.9924 28.1693 5.38944 26.4483 4.50149ZM8.43631 9.77283L5.64471 10.6909L5.30372 11.6264H7.76549L8.08608 10.7448H6.37965L8.31681 10.089L8.43631 9.77283ZM19.5444 5.6736H19.949C20.2244 5.6736 20.3765 5.76589 20.3799 5.97913C20.3823 6.1166 20.3454 6.30507 20.2026 6.71067C20.0763 7.07352 19.9753 7.28385 19.832 7.43784C19.7168 7.55927 19.5638 7.61319 19.2126 7.61319H18.8745L19.5444 5.6736ZM18.6574 5.27286L17.5528 8.4958H19.1825C19.881 8.4958 20.2798 8.34084 20.6033 7.99402C21.0094 7.56462 21.3805 6.4474 21.3684 5.83244C21.3562 5.20485 20.9511 4.79634 20.0986 4.79634H18.6181L18.587 4.89155L18.6511 4.95421C18.7191 5.02173 18.7167 5.10139 18.6574 5.27286ZM24.807 6.12292H22.3452L22.0246 7.00358H23.7306L21.7929 7.66128L21.6734 7.97653L24.465 7.05847L24.807 6.12292ZM13.8043 8.49385H14.7321L15.5413 6.10057L16.0145 8.49385H16.9432L18.2091 4.79488L17.2385 4.79634L16.5624 6.80685L16.1762 4.79634H14.8681L14.836 4.89155L14.9002 4.95421C14.9691 5.02173 14.9657 5.10139 14.907 5.27286L13.8043 8.49385ZM7.15248 8.4958L9.67691 8.49482L9.98196 7.61319H8.51451L9.48407 4.79634H8.21821L8.18663 4.89155L8.24978 4.95421C8.31876 5.02173 8.31584 5.10139 8.25658 5.27286L7.15248 8.4958ZM12.5234 5.81884H12.5564L12.5739 6.93606H11.8929L12.5234 5.81884ZM9.93873 8.49385H11.0127L11.4781 7.67634H12.5899L12.6011 8.49385H13.5755L13.3652 4.79634H11.9065L11.8739 4.89155L11.9211 4.93866C11.9978 5.01395 11.9662 5.12228 11.6821 5.57305L9.93873 8.49385Z" fill="#3459A3"/>
</svg>
